<mxfile host="65bd71144e">
    <diagram id="-Yu_y4jb2FFVkcc31uGR" name="Page-1">
        <mxGraphModel dx="1615" dy="792" grid="1" gridSize="10" guides="1" tooltips="1" connect="1" arrows="1" fold="1" page="1" pageScale="1" pageWidth="850" pageHeight="1100" math="0" shadow="0">
            <root>
                <mxCell id="0"/>
                <mxCell id="1" parent="0"/>
                <mxCell id="5" style="edgeStyle=none;html=1;exitX=0.5;exitY=1;exitDx=0;exitDy=0;entryX=0.5;entryY=0;entryDx=0;entryDy=0;" parent="1" source="2" target="4" edge="1">
                    <mxGeometry relative="1" as="geometry">
                        <mxPoint x="425" y="90" as="targetPoint"/>
                    </mxGeometry>
                </mxCell>
                <mxCell id="2" value="INICIO" style="ellipse;whiteSpace=wrap;html=1;fillColor=#66B2FF;" parent="1" vertex="1">
                    <mxGeometry x="310" y="110" width="230" height="40" as="geometry"/>
                </mxCell>
                <mxCell id="56" style="edgeStyle=none;html=1;exitX=0.5;exitY=1;exitDx=0;exitDy=0;entryX=0.5;entryY=0;entryDx=0;entryDy=0;" parent="1" source="4" target="55" edge="1">
                    <mxGeometry relative="1" as="geometry"/>
                </mxCell>
                <mxCell id="4" value="&lt;font style=&quot;font-size: 18px;&quot;&gt;Ingresa un numero&lt;/font&gt;" style="shape=parallelogram;perimeter=parallelogramPerimeter;whiteSpace=wrap;html=1;fixedSize=1;fillColor=#FFCC99;" parent="1" vertex="1">
                    <mxGeometry x="330.5" y="190" width="190" height="90" as="geometry"/>
                </mxCell>
                <mxCell id="14" style="edgeStyle=none;html=1;exitX=0.5;exitY=0;exitDx=0;exitDy=0;entryX=0;entryY=0.5;entryDx=0;entryDy=0;" parent="1" source="6" target="4" edge="1">
                    <mxGeometry relative="1" as="geometry">
                        <mxPoint x="300" y="80" as="targetPoint"/>
                        <Array as="points">
                            <mxPoint x="150" y="235"/>
                        </Array>
                    </mxGeometry>
                </mxCell>
                <mxCell id="6" value="&lt;font style=&quot;font-size: 18px;&quot;&gt;Ingresa un&amp;nbsp;&lt;/font&gt;&lt;div&gt;&lt;font style=&quot;font-size: 18px;&quot;&gt;numero&lt;/font&gt;&lt;div&gt;&lt;font style=&quot;font-size: 18px;&quot;&gt;valido&lt;/font&gt;&lt;/div&gt;&lt;/div&gt;" style="shape=document;whiteSpace=wrap;html=1;boundedLbl=1;fillColor=#FF6666;" parent="1" vertex="1">
                    <mxGeometry x="90" y="422.5" width="120" height="85" as="geometry"/>
                </mxCell>
                <mxCell id="10" style="edgeStyle=none;html=1;exitX=0;exitY=0.5;exitDx=0;exitDy=0;entryX=1;entryY=0.5;entryDx=0;entryDy=0;" parent="1" source="9" target="6" edge="1">
                    <mxGeometry relative="1" as="geometry"/>
                </mxCell>
                <mxCell id="68" value="&lt;span style=&quot;font-size: 14px;&quot;&gt;No&lt;/span&gt;" style="edgeLabel;html=1;align=center;verticalAlign=middle;resizable=0;points=[];" parent="10" vertex="1" connectable="0">
                    <mxGeometry x="-0.0769" y="1" relative="1" as="geometry">
                        <mxPoint x="1" as="offset"/>
                    </mxGeometry>
                </mxCell>
                <mxCell id="18" style="edgeStyle=none;html=1;exitX=0.5;exitY=1;exitDx=0;exitDy=0;" parent="1" source="9" edge="1">
                    <mxGeometry relative="1" as="geometry">
                        <mxPoint x="425" y="600" as="targetPoint"/>
                    </mxGeometry>
                </mxCell>
                <mxCell id="84" value="&lt;font size=&quot;3&quot;&gt;Si&lt;/font&gt;" style="edgeLabel;html=1;align=center;verticalAlign=middle;resizable=0;points=[];" parent="18" vertex="1" connectable="0">
                    <mxGeometry x="-0.0231" y="1" relative="1" as="geometry">
                        <mxPoint x="-1" as="offset"/>
                    </mxGeometry>
                </mxCell>
                <mxCell id="9" value="&lt;font style=&quot;font-size: 18px;&quot;&gt;¿Es valido?&lt;/font&gt;" style="rhombus;whiteSpace=wrap;html=1;fillColor=#FFFF66;" parent="1" vertex="1">
                    <mxGeometry x="353" y="400" width="145" height="130" as="geometry"/>
                </mxCell>
                <mxCell id="57" style="edgeStyle=none;html=1;exitX=0.5;exitY=1;exitDx=0;exitDy=0;" parent="1" source="55" target="9" edge="1">
                    <mxGeometry relative="1" as="geometry"/>
                </mxCell>
                <mxCell id="55" value="&lt;font style=&quot;font-size: 18px;&quot;&gt;Validar&lt;/font&gt;&lt;div&gt;&lt;font style=&quot;font-size: 18px;&quot;&gt;numero&lt;/font&gt;&lt;/div&gt;" style="rounded=0;whiteSpace=wrap;html=1;fillColor=#99FFCC;" parent="1" vertex="1">
                    <mxGeometry x="345" y="310" width="160" height="60" as="geometry"/>
                </mxCell>
                <mxCell id="88" style="edgeStyle=none;html=1;exitX=0;exitY=0.5;exitDx=0;exitDy=0;entryX=1;entryY=0.5;entryDx=0;entryDy=0;" parent="1" source="85" target="86" edge="1">
                    <mxGeometry relative="1" as="geometry"/>
                </mxCell>
                <mxCell id="91" value="&lt;font size=&quot;3&quot;&gt;No&lt;/font&gt;" style="edgeLabel;html=1;align=center;verticalAlign=middle;resizable=0;points=[];" parent="88" vertex="1" connectable="0">
                    <mxGeometry x="-0.0634" relative="1" as="geometry">
                        <mxPoint as="offset"/>
                    </mxGeometry>
                </mxCell>
                <mxCell id="89" style="edgeStyle=none;html=1;exitX=1;exitY=0.5;exitDx=0;exitDy=0;entryX=0;entryY=0.5;entryDx=0;entryDy=0;" parent="1" source="85" target="87" edge="1">
                    <mxGeometry relative="1" as="geometry"/>
                </mxCell>
                <mxCell id="90" value="&lt;font style=&quot;font-size: 14px;&quot;&gt;Si&lt;/font&gt;" style="edgeLabel;html=1;align=center;verticalAlign=middle;resizable=0;points=[];" parent="89" vertex="1" connectable="0">
                    <mxGeometry x="-0.2592" relative="1" as="geometry">
                        <mxPoint as="offset"/>
                    </mxGeometry>
                </mxCell>
                <mxCell id="93" style="edgeStyle=none;html=1;exitX=0.5;exitY=1;exitDx=0;exitDy=0;entryX=0.5;entryY=0;entryDx=0;entryDy=0;" parent="1" source="85" target="92" edge="1">
                    <mxGeometry relative="1" as="geometry"/>
                </mxCell>
                <mxCell id="85" value="&lt;font style=&quot;font-size: 18px;&quot;&gt;¿Es %2==0?&lt;/font&gt;" style="rhombus;whiteSpace=wrap;html=1;fillColor=#FFFF66;" parent="1" vertex="1">
                    <mxGeometry x="355" y="600" width="140" height="140" as="geometry"/>
                </mxCell>
                <mxCell id="96" style="edgeStyle=none;html=1;" parent="1" source="86" edge="1">
                    <mxGeometry relative="1" as="geometry">
                        <mxPoint x="300" y="840" as="targetPoint"/>
                        <Array as="points">
                            <mxPoint x="140" y="840"/>
                        </Array>
                    </mxGeometry>
                </mxCell>
                <mxCell id="86" value="&lt;font style=&quot;font-size: 18px;&quot;&gt;El numero&lt;/font&gt;&lt;div&gt;&lt;font style=&quot;font-size: 18px;&quot;&gt;es impar&lt;/font&gt;&lt;/div&gt;" style="shape=document;whiteSpace=wrap;html=1;boundedLbl=1;fillColor=#66FF66;" parent="1" vertex="1">
                    <mxGeometry x="80" y="630" width="120" height="80" as="geometry"/>
                </mxCell>
                <mxCell id="94" style="edgeStyle=none;html=1;entryX=1;entryY=0.5;entryDx=0;entryDy=0;" parent="1" source="87" target="92" edge="1">
                    <mxGeometry relative="1" as="geometry">
                        <Array as="points">
                            <mxPoint x="720" y="840"/>
                        </Array>
                    </mxGeometry>
                </mxCell>
                <mxCell id="87" value="&lt;font style=&quot;font-size: 18px;&quot;&gt;El numero&amp;nbsp;&lt;/font&gt;&lt;div&gt;&lt;font style=&quot;font-size: 18px;&quot;&gt;es par&lt;/font&gt;&lt;/div&gt;" style="shape=document;whiteSpace=wrap;html=1;boundedLbl=1;fillColor=#66FF66;" parent="1" vertex="1">
                    <mxGeometry x="660.5" y="625" width="120" height="90" as="geometry"/>
                </mxCell>
                <mxCell id="92" value="&lt;font style=&quot;font-size: 18px;&quot;&gt;Fin&lt;/font&gt;" style="ellipse;whiteSpace=wrap;html=1;fillColor=#3399FF;" parent="1" vertex="1">
                    <mxGeometry x="310" y="820" width="230" height="40" as="geometry"/>
                </mxCell>
                <mxCell id="102" value="&lt;font style=&quot;font-size: 24px;&quot;&gt;&lt;b&gt;Tema 1&lt;/b&gt;&lt;/font&gt;" style="text;html=1;align=center;verticalAlign=middle;resizable=0;points=[];autosize=1;strokeColor=none;fillColor=none;" parent="1" vertex="1">
                    <mxGeometry x="95" width="100" height="40" as="geometry"/>
                </mxCell>
                <mxCell id="103" value="&lt;span style=&quot;font-size: 24px;&quot;&gt;&lt;b&gt;sistema de verificacion de paridad numerica&lt;/b&gt;&lt;/span&gt;" style="text;html=1;align=center;verticalAlign=middle;resizable=0;points=[];autosize=1;strokeColor=none;fillColor=none;" parent="1" vertex="1">
                    <mxGeometry x="175" y="40" width="530" height="40" as="geometry"/>
                </mxCell>
                <mxCell id="104" value="&lt;b&gt;&lt;font style=&quot;font-size: 24px;&quot;&gt;Tema 2&lt;/font&gt;&lt;/b&gt;" style="text;html=1;align=center;verticalAlign=middle;resizable=0;points=[];autosize=1;strokeColor=none;fillColor=none;" parent="1" vertex="1">
                    <mxGeometry x="50" y="983" width="100" height="40" as="geometry"/>
                </mxCell>
                <mxCell id="105" value="&lt;font style=&quot;font-size: 24px;&quot;&gt;&lt;b&gt;Calculadora area triangular con validaciones&amp;nbsp;&lt;/b&gt;&lt;/font&gt;" style="text;html=1;align=center;verticalAlign=middle;resizable=0;points=[];autosize=1;strokeColor=none;fillColor=none;" parent="1" vertex="1">
                    <mxGeometry x="120.5" y="1053" width="540" height="40" as="geometry"/>
                </mxCell>
                <mxCell id="108" style="edgeStyle=none;html=1;exitX=0.5;exitY=1;exitDx=0;exitDy=0;" parent="1" source="106" target="107" edge="1">
                    <mxGeometry relative="1" as="geometry"/>
                </mxCell>
                <mxCell id="106" value="&lt;font style=&quot;font-size: 18px;&quot;&gt;Inicio&lt;/font&gt;" style="ellipse;whiteSpace=wrap;html=1;fillColor=#3399FF;" parent="1" vertex="1">
                    <mxGeometry x="320" y="1140" width="240" height="40" as="geometry"/>
                </mxCell>
                <mxCell id="110" style="edgeStyle=none;html=1;exitX=0.5;exitY=1;exitDx=0;exitDy=0;entryX=0.5;entryY=0;entryDx=0;entryDy=0;" parent="1" source="107" target="109" edge="1">
                    <mxGeometry relative="1" as="geometry"/>
                </mxCell>
                <mxCell id="107" value="&lt;font style=&quot;font-size: 18px;&quot;&gt;Ingresar&amp;nbsp;&lt;/font&gt;&lt;div&gt;&lt;font style=&quot;font-size: 18px;&quot;&gt;valor de base&lt;/font&gt;&lt;/div&gt;" style="shape=parallelogram;perimeter=parallelogramPerimeter;whiteSpace=wrap;html=1;fixedSize=1;fillColor=#FFCC99;" parent="1" vertex="1">
                    <mxGeometry x="335" y="1250" width="210" height="60" as="geometry"/>
                </mxCell>
                <mxCell id="112" style="edgeStyle=none;html=1;exitX=0.5;exitY=1;exitDx=0;exitDy=0;entryX=0.5;entryY=0;entryDx=0;entryDy=0;" parent="1" source="109" target="111" edge="1">
                    <mxGeometry relative="1" as="geometry"/>
                </mxCell>
                <mxCell id="109" value="&lt;font style=&quot;font-size: 18px;&quot;&gt;Validar&amp;nbsp;&lt;/font&gt;&lt;div&gt;&lt;font style=&quot;font-size: 18px;&quot;&gt;base&lt;/font&gt;&lt;/div&gt;" style="whiteSpace=wrap;html=1;fillColor=#99FFCC;" parent="1" vertex="1">
                    <mxGeometry x="347.5" y="1380" width="185" height="80" as="geometry"/>
                </mxCell>
                <mxCell id="114" style="edgeStyle=none;html=1;entryX=1;entryY=0.5;entryDx=0;entryDy=0;" parent="1" source="111" target="113" edge="1">
                    <mxGeometry relative="1" as="geometry"/>
                </mxCell>
                <mxCell id="115" value="&lt;font style=&quot;font-size: 14px;&quot;&gt;No&lt;/font&gt;" style="edgeLabel;html=1;align=center;verticalAlign=middle;resizable=0;points=[];" parent="114" vertex="1" connectable="0">
                    <mxGeometry x="-0.126" y="-1" relative="1" as="geometry">
                        <mxPoint as="offset"/>
                    </mxGeometry>
                </mxCell>
                <mxCell id="111" value="&lt;font style=&quot;font-size: 18px;&quot;&gt;¿Es un&amp;nbsp;&lt;/font&gt;&lt;div&gt;&lt;font style=&quot;font-size: 18px;&quot;&gt;numero?&lt;/font&gt;&lt;/div&gt;" style="rhombus;whiteSpace=wrap;html=1;fillColor=#FFFF66;" parent="1" vertex="1">
                    <mxGeometry x="357.5" y="1530" width="165" height="140" as="geometry"/>
                </mxCell>
                <mxCell id="116" style="edgeStyle=none;html=1;entryX=0.046;entryY=0.407;entryDx=0;entryDy=0;entryPerimeter=0;" parent="1" target="107" edge="1">
                    <mxGeometry relative="1" as="geometry">
                        <mxPoint x="310" y="1270" as="targetPoint"/>
                        <mxPoint x="154.5454545454545" y="1555" as="sourcePoint"/>
                        <Array as="points">
                            <mxPoint x="155" y="1274"/>
                        </Array>
                    </mxGeometry>
                </mxCell>
                <mxCell id="113" value="&lt;font style=&quot;font-size: 18px;&quot;&gt;El valor debe&lt;/font&gt;&lt;div&gt;&lt;font style=&quot;font-size: 18px;&quot;&gt;ser un numero&lt;/font&gt;&lt;/div&gt;" style="shape=document;whiteSpace=wrap;html=1;boundedLbl=1;fillColor=#FF6666;" parent="1" vertex="1">
                    <mxGeometry x="80" y="1555" width="140" height="90" as="geometry"/>
                </mxCell>
                <mxCell id="121" style="edgeStyle=none;html=1;" parent="1" source="117" target="120" edge="1">
                    <mxGeometry relative="1" as="geometry"/>
                </mxCell>
                <mxCell id="129" style="edgeStyle=none;html=1;entryX=0.5;entryY=0;entryDx=0;entryDy=0;" parent="1" source="117" target="126" edge="1">
                    <mxGeometry relative="1" as="geometry"/>
                </mxCell>
                <mxCell id="130" value="&lt;font style=&quot;font-size: 14px;&quot;&gt;Si&lt;/font&gt;" style="edgeLabel;html=1;align=center;verticalAlign=middle;resizable=0;points=[];" parent="129" vertex="1" connectable="0">
                    <mxGeometry x="0.0914" y="-1" relative="1" as="geometry">
                        <mxPoint as="offset"/>
                    </mxGeometry>
                </mxCell>
                <mxCell id="117" value="&lt;font style=&quot;font-size: 18px;&quot;&gt;¿Base&lt;/font&gt;&lt;div&gt;&lt;font style=&quot;font-size: 18px;&quot;&gt;Es&amp;nbsp; &amp;gt; 0?&lt;/font&gt;&lt;/div&gt;" style="rhombus;whiteSpace=wrap;html=1;fillColor=#FFFF66;" parent="1" vertex="1">
                    <mxGeometry x="360" y="1750" width="160" height="140" as="geometry"/>
                </mxCell>
                <mxCell id="118" style="edgeStyle=none;html=1;exitX=0.5;exitY=1;exitDx=0;exitDy=0;entryX=0.499;entryY=0.05;entryDx=0;entryDy=0;entryPerimeter=0;" parent="1" source="111" target="117" edge="1">
                    <mxGeometry relative="1" as="geometry"/>
                </mxCell>
                <mxCell id="119" value="&lt;font style=&quot;font-size: 14px;&quot;&gt;Si&lt;/font&gt;" style="edgeLabel;html=1;align=center;verticalAlign=middle;resizable=0;points=[];" parent="118" vertex="1" connectable="0">
                    <mxGeometry x="0.0023" y="-1" relative="1" as="geometry">
                        <mxPoint as="offset"/>
                    </mxGeometry>
                </mxCell>
                <mxCell id="122" style="edgeStyle=none;html=1;entryX=1;entryY=0.25;entryDx=0;entryDy=0;" parent="1" target="107" edge="1">
                    <mxGeometry relative="1" as="geometry">
                        <mxPoint x="545" y="1280" as="targetPoint"/>
                        <mxPoint x="714.5833333333333" y="1775" as="sourcePoint"/>
                        <Array as="points">
                            <mxPoint x="715" y="1266"/>
                        </Array>
                    </mxGeometry>
                </mxCell>
                <mxCell id="120" value="&lt;font style=&quot;font-size: 18px;&quot;&gt;La base debe&lt;/font&gt;&lt;div&gt;&lt;font style=&quot;font-size: 18px;&quot;&gt;se mayor a 0&lt;/font&gt;&lt;/div&gt;" style="shape=document;whiteSpace=wrap;html=1;boundedLbl=1;fillColor=#FF6666;" parent="1" vertex="1">
                    <mxGeometry x="650" y="1775" width="140" height="90" as="geometry"/>
                </mxCell>
                <mxCell id="133" style="edgeStyle=none;html=1;entryX=0.5;entryY=0;entryDx=0;entryDy=0;" parent="1" source="126" target="132" edge="1">
                    <mxGeometry relative="1" as="geometry">
                        <mxPoint x="430" y="2110" as="targetPoint"/>
                    </mxGeometry>
                </mxCell>
                <mxCell id="126" value="&lt;font style=&quot;font-size: 18px;&quot;&gt;Ingresar&amp;nbsp;&lt;/font&gt;&lt;div&gt;&lt;font style=&quot;font-size: 18px;&quot;&gt;valor de altura&lt;/font&gt;&lt;/div&gt;" style="shape=parallelogram;perimeter=parallelogramPerimeter;whiteSpace=wrap;html=1;fixedSize=1;fillColor=#FFCC99;" parent="1" vertex="1">
                    <mxGeometry x="335" y="1990" width="210" height="60" as="geometry"/>
                </mxCell>
                <mxCell id="135" style="edgeStyle=none;html=1;entryX=0.5;entryY=0;entryDx=0;entryDy=0;" parent="1" source="132" target="134" edge="1">
                    <mxGeometry relative="1" as="geometry"/>
                </mxCell>
                <mxCell id="132" value="&lt;font style=&quot;font-size: 18px;&quot;&gt;Validar&amp;nbsp;&lt;/font&gt;&lt;div&gt;&lt;span style=&quot;font-size: 18px;&quot;&gt;altura&lt;/span&gt;&lt;/div&gt;" style="whiteSpace=wrap;html=1;fillColor=#99FFCC;" parent="1" vertex="1">
                    <mxGeometry x="347.5" y="2160" width="185" height="80" as="geometry"/>
                </mxCell>
                <mxCell id="137" value="&lt;font style=&quot;font-size: 14px;&quot;&gt;No&lt;/font&gt;" style="edgeStyle=none;html=1;entryX=1;entryY=0.5;entryDx=0;entryDy=0;" parent="1" source="134" target="136" edge="1">
                    <mxGeometry relative="1" as="geometry"/>
                </mxCell>
                <mxCell id="142" value="" style="edgeStyle=none;html=1;" parent="1" source="134" target="141" edge="1">
                    <mxGeometry relative="1" as="geometry"/>
                </mxCell>
                <mxCell id="143" value="&lt;font style=&quot;font-size: 14px;&quot;&gt;Si&lt;/font&gt;" style="edgeLabel;html=1;align=center;verticalAlign=middle;resizable=0;points=[];" parent="142" vertex="1" connectable="0">
                    <mxGeometry x="-0.1418" y="1" relative="1" as="geometry">
                        <mxPoint as="offset"/>
                    </mxGeometry>
                </mxCell>
                <mxCell id="134" value="&lt;font style=&quot;font-size: 18px;&quot;&gt;¿Es un&amp;nbsp;&lt;/font&gt;&lt;div&gt;&lt;font style=&quot;font-size: 18px;&quot;&gt;numero?&lt;/font&gt;&lt;/div&gt;" style="rhombus;whiteSpace=wrap;html=1;fillColor=#FFFF66;" parent="1" vertex="1">
                    <mxGeometry x="357.5" y="2350" width="165" height="140" as="geometry"/>
                </mxCell>
                <mxCell id="139" style="edgeStyle=none;html=1;entryX=0;entryY=0.5;entryDx=0;entryDy=0;" parent="1" target="126" edge="1">
                    <mxGeometry relative="1" as="geometry">
                        <mxPoint x="152.8998679141443" y="2375" as="sourcePoint"/>
                        <mxPoint x="330.49818181818176" y="2007.0454545454545" as="targetPoint"/>
                        <Array as="points">
                            <mxPoint x="153" y="2020"/>
                        </Array>
                    </mxGeometry>
                </mxCell>
                <mxCell id="136" value="&lt;font style=&quot;font-size: 18px;&quot;&gt;El valor debe&lt;/font&gt;&lt;div&gt;&lt;font style=&quot;font-size: 18px;&quot;&gt;ser un numero&lt;/font&gt;&lt;/div&gt;" style="shape=document;whiteSpace=wrap;html=1;boundedLbl=1;fillColor=#FF6666;" parent="1" vertex="1">
                    <mxGeometry x="80" y="2375" width="140" height="90" as="geometry"/>
                </mxCell>
                <mxCell id="145" style="edgeStyle=none;html=1;entryX=0;entryY=0.5;entryDx=0;entryDy=0;" parent="1" source="141" target="144" edge="1">
                    <mxGeometry relative="1" as="geometry"/>
                </mxCell>
                <mxCell id="148" style="edgeStyle=none;html=1;exitX=0.5;exitY=1;exitDx=0;exitDy=0;" parent="1" source="141" target="147" edge="1">
                    <mxGeometry relative="1" as="geometry"/>
                </mxCell>
                <mxCell id="149" value="&lt;span style=&quot;font-size: 14px;&quot;&gt;SI&lt;/span&gt;" style="edgeLabel;html=1;align=center;verticalAlign=middle;resizable=0;points=[];" parent="148" vertex="1" connectable="0">
                    <mxGeometry x="-0.0167" y="2" relative="1" as="geometry">
                        <mxPoint as="offset"/>
                    </mxGeometry>
                </mxCell>
                <mxCell id="141" value="&lt;font style=&quot;font-size: 18px;&quot;&gt;¿Altura&lt;/font&gt;&lt;div&gt;&lt;font style=&quot;font-size: 18px;&quot;&gt;Es&amp;nbsp; &amp;gt; 0?&lt;/font&gt;&lt;/div&gt;" style="rhombus;whiteSpace=wrap;html=1;fillColor=#FFFF66;" parent="1" vertex="1">
                    <mxGeometry x="360" y="2600" width="160" height="140" as="geometry"/>
                </mxCell>
                <mxCell id="146" style="edgeStyle=none;html=1;entryX=1;entryY=0.5;entryDx=0;entryDy=0;" parent="1" source="144" target="126" edge="1">
                    <mxGeometry relative="1" as="geometry">
                        <Array as="points">
                            <mxPoint x="730" y="2020"/>
                        </Array>
                    </mxGeometry>
                </mxCell>
                <mxCell id="144" value="&lt;font style=&quot;font-size: 18px;&quot;&gt;La altura debe&lt;/font&gt;&lt;div&gt;&lt;font style=&quot;font-size: 18px;&quot;&gt;se mayor a 0&lt;/font&gt;&lt;/div&gt;" style="shape=document;whiteSpace=wrap;html=1;boundedLbl=1;fillColor=#FF6666;" parent="1" vertex="1">
                    <mxGeometry x="670" y="2625" width="140" height="90" as="geometry"/>
                </mxCell>
                <mxCell id="151" style="edgeStyle=none;html=1;entryX=0.5;entryY=0;entryDx=0;entryDy=0;" parent="1" source="147" target="150" edge="1">
                    <mxGeometry relative="1" as="geometry"/>
                </mxCell>
                <mxCell id="147" value="&lt;font style=&quot;font-size: 18px;&quot;&gt;(base × altura) / 2&quot;&lt;/font&gt;" style="whiteSpace=wrap;html=1;fillColor=#99FFCC;" parent="1" vertex="1">
                    <mxGeometry x="347.5" y="2860" width="185" height="80" as="geometry"/>
                </mxCell>
                <mxCell id="154" style="edgeStyle=none;html=1;entryX=0.5;entryY=0;entryDx=0;entryDy=0;exitX=0.502;exitY=0.9;exitDx=0;exitDy=0;exitPerimeter=0;" parent="1" source="150" target="153" edge="1">
                    <mxGeometry relative="1" as="geometry"/>
                </mxCell>
                <mxCell id="150" value="&lt;span style=&quot;font-size: 18px;&quot;&gt;Mostrar&amp;nbsp;&lt;/span&gt;&lt;div&gt;&lt;span style=&quot;font-size: 18px;&quot;&gt;resultado&lt;/span&gt;&lt;/div&gt;" style="shape=document;whiteSpace=wrap;html=1;boundedLbl=1;fillColor=#66FF66;" parent="1" vertex="1">
                    <mxGeometry x="370" y="3070" width="140" height="90" as="geometry"/>
                </mxCell>
                <mxCell id="153" value="&lt;font style=&quot;font-size: 18px;&quot;&gt;Fin&lt;/font&gt;" style="ellipse;whiteSpace=wrap;html=1;fillColor=#3399FF;" parent="1" vertex="1">
                    <mxGeometry x="325" y="3310" width="230" height="40" as="geometry"/>
                </mxCell>
                <mxCell id="178" value="" style="edgeStyle=none;html=1;" parent="1" source="155" target="157" edge="1">
                    <mxGeometry relative="1" as="geometry"/>
                </mxCell>
                <mxCell id="155" value="INICIO" style="ellipse;whiteSpace=wrap;html=1;fillColor=#66B2FF;" parent="1" vertex="1">
                    <mxGeometry x="1140" y="110" width="230" height="40" as="geometry"/>
                </mxCell>
                <mxCell id="156" value="&lt;font style=&quot;font-size: 24px;&quot;&gt;&lt;b&gt;Tema 3&lt;/b&gt;&lt;/font&gt;" style="text;html=1;align=center;verticalAlign=middle;resizable=0;points=[];autosize=1;strokeColor=none;fillColor=none;" parent="1" vertex="1">
                    <mxGeometry x="920" y="10" width="100" height="40" as="geometry"/>
                </mxCell>
                <mxCell id="164" value="" style="edgeStyle=none;html=1;" parent="1" source="157" target="158" edge="1">
                    <mxGeometry relative="1" as="geometry"/>
                </mxCell>
                <mxCell id="157" value="&lt;span style=&quot;font-size: 18px;&quot;&gt;Ingresa tu edad&lt;/span&gt;" style="shape=parallelogram;perimeter=parallelogramPerimeter;whiteSpace=wrap;html=1;fixedSize=1;fillColor=#FFCC99;" parent="1" vertex="1">
                    <mxGeometry x="1160" y="200" width="190" height="90" as="geometry"/>
                </mxCell>
                <mxCell id="165" value="" style="edgeStyle=none;html=1;" parent="1" source="158" target="160" edge="1">
                    <mxGeometry relative="1" as="geometry"/>
                </mxCell>
                <mxCell id="158" value="&lt;font style=&quot;font-size: 18px;&quot;&gt;Validar&lt;/font&gt;&lt;div&gt;&lt;span style=&quot;font-size: 18px;&quot;&gt;edad&lt;/span&gt;&lt;/div&gt;" style="rounded=0;whiteSpace=wrap;html=1;fillColor=#99FFCC;" parent="1" vertex="1">
                    <mxGeometry x="1175" y="340" width="160" height="60" as="geometry"/>
                </mxCell>
                <mxCell id="159" value="&lt;font style=&quot;font-size: 24px;&quot;&gt;&lt;b&gt;Sistema de verificacion de mayoria de edad&lt;/b&gt;&lt;/font&gt;" style="text;html=1;align=center;verticalAlign=middle;resizable=0;points=[];autosize=1;strokeColor=none;fillColor=none;" parent="1" vertex="1">
                    <mxGeometry x="970" y="50" width="520" height="40" as="geometry"/>
                </mxCell>
                <mxCell id="167" style="edgeStyle=none;html=1;entryX=1;entryY=0.5;entryDx=0;entryDy=0;" parent="1" source="160" target="161" edge="1">
                    <mxGeometry relative="1" as="geometry"/>
                </mxCell>
                <mxCell id="171" value="&lt;font style=&quot;font-size: 14px;&quot;&gt;No&lt;/font&gt;" style="edgeLabel;html=1;align=center;verticalAlign=middle;resizable=0;points=[];" parent="167" vertex="1" connectable="0">
                    <mxGeometry x="-0.1561" y="1" relative="1" as="geometry">
                        <mxPoint x="-1" as="offset"/>
                    </mxGeometry>
                </mxCell>
                <mxCell id="170" style="edgeStyle=none;html=1;" parent="1" source="160" edge="1">
                    <mxGeometry relative="1" as="geometry">
                        <mxPoint x="1255" y="700.0000000000002" as="targetPoint"/>
                    </mxGeometry>
                </mxCell>
                <mxCell id="172" value="&lt;font style=&quot;font-size: 14px;&quot;&gt;Si&lt;/font&gt;" style="edgeLabel;html=1;align=center;verticalAlign=middle;resizable=0;points=[];" parent="170" vertex="1" connectable="0">
                    <mxGeometry x="-0.0291" relative="1" as="geometry">
                        <mxPoint as="offset"/>
                    </mxGeometry>
                </mxCell>
                <mxCell id="160" value="&lt;font style=&quot;font-size: 18px;&quot;&gt;¿Es un&amp;nbsp;&lt;/font&gt;&lt;div&gt;&lt;font style=&quot;font-size: 18px;&quot;&gt;numero?&lt;/font&gt;&lt;/div&gt;" style="rhombus;whiteSpace=wrap;html=1;fillColor=#FFFF66;" parent="1" vertex="1">
                    <mxGeometry x="1182.5" y="485.5" width="145" height="130" as="geometry"/>
                </mxCell>
                <mxCell id="162" style="edgeStyle=none;html=1;exitX=0.5;exitY=0;exitDx=0;exitDy=0;entryX=0;entryY=0.5;entryDx=0;entryDy=0;" parent="1" source="161" target="157" edge="1">
                    <mxGeometry relative="1" as="geometry">
                        <Array as="points">
                            <mxPoint x="1010" y="245"/>
                        </Array>
                    </mxGeometry>
                </mxCell>
                <mxCell id="161" value="&lt;span style=&quot;font-size: 18px;&quot;&gt;La edad debe&lt;/span&gt;&lt;div&gt;&lt;span style=&quot;font-size: 18px;&quot;&gt;ser un numero&lt;/span&gt;&lt;/div&gt;" style="shape=document;whiteSpace=wrap;html=1;boundedLbl=1;fillColor=#FF6666;" parent="1" vertex="1">
                    <mxGeometry x="950" y="508" width="120" height="85" as="geometry"/>
                </mxCell>
                <mxCell id="169" style="edgeStyle=none;html=1;" parent="1" edge="1">
                    <mxGeometry relative="1" as="geometry">
                        <mxPoint x="1440" y="761" as="targetPoint"/>
                        <mxPoint x="1323.5774253731338" y="761.483208955224" as="sourcePoint"/>
                    </mxGeometry>
                </mxCell>
                <mxCell id="174" value="&lt;font style=&quot;font-size: 14px;&quot;&gt;No&lt;/font&gt;" style="edgeLabel;html=1;align=center;verticalAlign=middle;resizable=0;points=[];" parent="169" vertex="1" connectable="0">
                    <mxGeometry x="-0.0988" y="4" relative="1" as="geometry">
                        <mxPoint as="offset"/>
                    </mxGeometry>
                </mxCell>
                <mxCell id="201" value="" style="edgeStyle=none;html=1;" parent="1" edge="1">
                    <mxGeometry relative="1" as="geometry">
                        <mxPoint x="1255" y="830.0000000000002" as="sourcePoint"/>
                        <mxPoint x="1255" y="890.0000000000002" as="targetPoint"/>
                    </mxGeometry>
                </mxCell>
                <mxCell id="203" value="&lt;font style=&quot;font-size: 14px;&quot;&gt;Si&lt;/font&gt;" style="edgeLabel;html=1;align=center;verticalAlign=middle;resizable=0;points=[];" parent="201" vertex="1" connectable="0">
                    <mxGeometry x="0.025" relative="1" as="geometry">
                        <mxPoint y="-1" as="offset"/>
                    </mxGeometry>
                </mxCell>
                <mxCell id="195" style="edgeStyle=none;html=1;entryX=1;entryY=0.75;entryDx=0;entryDy=0;" parent="1" target="157" edge="1">
                    <mxGeometry relative="1" as="geometry">
                        <mxPoint x="1510" y="715" as="sourcePoint"/>
                        <Array as="points">
                            <mxPoint x="1500" y="264"/>
                        </Array>
                    </mxGeometry>
                </mxCell>
                <mxCell id="181" style="edgeStyle=none;html=1;entryX=0.5;entryY=0;entryDx=0;entryDy=0;" parent="1" source="175" target="179" edge="1">
                    <mxGeometry relative="1" as="geometry"/>
                </mxCell>
                <mxCell id="184" value="&lt;font style=&quot;font-size: 14px;&quot;&gt;Si&lt;/font&gt;" style="edgeLabel;html=1;align=center;verticalAlign=middle;resizable=0;points=[];" parent="181" vertex="1" connectable="0">
                    <mxGeometry x="-0.3387" y="-1" relative="1" as="geometry">
                        <mxPoint as="offset"/>
                    </mxGeometry>
                </mxCell>
                <mxCell id="182" value="" style="edgeStyle=none;html=1;" parent="1" source="175" target="180" edge="1">
                    <mxGeometry relative="1" as="geometry"/>
                </mxCell>
                <mxCell id="189" value="&lt;font style=&quot;font-size: 14px;&quot;&gt;No&lt;/font&gt;" style="edgeLabel;html=1;align=center;verticalAlign=middle;resizable=0;points=[];" parent="182" vertex="1" connectable="0">
                    <mxGeometry x="-0.057" y="-1" relative="1" as="geometry">
                        <mxPoint as="offset"/>
                    </mxGeometry>
                </mxCell>
                <mxCell id="175" value="&lt;font style=&quot;font-size: 18px;&quot;&gt;¿Es &amp;gt;= 18?&lt;/font&gt;" style="rhombus;whiteSpace=wrap;html=1;fillColor=#FFFF66;" parent="1" vertex="1">
                    <mxGeometry x="1182.5" y="1095" width="145" height="130" as="geometry"/>
                </mxCell>
                <mxCell id="191" value="" style="edgeStyle=none;html=1;" parent="1" source="179" target="190" edge="1">
                    <mxGeometry relative="1" as="geometry"/>
                </mxCell>
                <mxCell id="179" value="&lt;span style=&quot;font-size: 18px;&quot;&gt;Eres mayor&lt;/span&gt;&lt;div&gt;&lt;span style=&quot;font-size: 18px;&quot;&gt;de edad&lt;/span&gt;&lt;/div&gt;" style="shape=document;whiteSpace=wrap;html=1;boundedLbl=1;fillColor=#66FF66;" parent="1" vertex="1">
                    <mxGeometry x="1195" y="1310" width="120" height="85" as="geometry"/>
                </mxCell>
                <mxCell id="193" style="edgeStyle=none;html=1;entryX=0;entryY=0.5;entryDx=0;entryDy=0;" parent="1" source="180" target="190" edge="1">
                    <mxGeometry relative="1" as="geometry">
                        <Array as="points">
                            <mxPoint x="1000" y="1520"/>
                        </Array>
                    </mxGeometry>
                </mxCell>
                <mxCell id="180" value="&lt;span style=&quot;font-size: 18px;&quot;&gt;Eres menor&lt;/span&gt;&lt;div&gt;&lt;span style=&quot;font-size: 18px;&quot;&gt;de edad&lt;/span&gt;&lt;/div&gt;" style="shape=document;whiteSpace=wrap;html=1;boundedLbl=1;fillColor=#66FF66;" parent="1" vertex="1">
                    <mxGeometry x="940" y="1110" width="120" height="85" as="geometry"/>
                </mxCell>
                <mxCell id="190" value="&lt;font style=&quot;font-size: 18px;&quot;&gt;Fin&lt;/font&gt;" style="ellipse;whiteSpace=wrap;html=1;fillColor=#3399FF;" parent="1" vertex="1">
                    <mxGeometry x="1140" y="1500" width="230" height="40" as="geometry"/>
                </mxCell>
                <mxCell id="202" value="" style="edgeStyle=none;html=1;" parent="1" target="175" edge="1">
                    <mxGeometry relative="1" as="geometry">
                        <mxPoint x="1255" y="1020.0000000000002" as="sourcePoint"/>
                    </mxGeometry>
                </mxCell>
                <mxCell id="206" value="&lt;font style=&quot;font-size: 14px;&quot;&gt;Si&lt;/font&gt;" style="edgeLabel;html=1;align=center;verticalAlign=middle;resizable=0;points=[];" parent="202" vertex="1" connectable="0">
                    <mxGeometry x="0.0133" y="2" relative="1" as="geometry">
                        <mxPoint as="offset"/>
                    </mxGeometry>
                </mxCell>
                <mxCell id="208" style="edgeStyle=none;html=1;entryX=0;entryY=0.5;entryDx=0;entryDy=0;" parent="1" edge="1">
                    <mxGeometry relative="1" as="geometry">
                        <mxPoint x="1327.5" y="955.0000000000002" as="sourcePoint"/>
                        <mxPoint x="1460" y="955.0000000000002" as="targetPoint"/>
                    </mxGeometry>
                </mxCell>
                <mxCell id="214" value="&lt;font style=&quot;font-size: 14px;&quot;&gt;No&lt;/font&gt;" style="edgeLabel;html=1;align=center;verticalAlign=middle;resizable=0;points=[];" parent="208" vertex="1" connectable="0">
                    <mxGeometry x="-0.213" y="-1" relative="1" as="geometry">
                        <mxPoint as="offset"/>
                    </mxGeometry>
                </mxCell>
                <mxCell id="209" style="edgeStyle=none;html=1;entryX=1;entryY=0.25;entryDx=0;entryDy=0;exitX=1;exitY=0.5;exitDx=0;exitDy=0;" parent="1" source="213" target="157" edge="1">
                    <mxGeometry relative="1" as="geometry">
                        <mxPoint x="1380" y="130" as="targetPoint"/>
                        <mxPoint x="1600" y="960" as="sourcePoint"/>
                        <Array as="points">
                            <mxPoint x="1680" y="955"/>
                            <mxPoint x="1670" y="220"/>
                        </Array>
                    </mxGeometry>
                </mxCell>
                <mxCell id="210" value="&lt;span style=&quot;font-size: 18px;&quot;&gt;¿Esta entre&lt;/span&gt;&lt;div&gt;&lt;span style=&quot;font-size: 18px;&quot;&gt;&amp;nbsp;0&amp;nbsp; y&amp;nbsp;&lt;/span&gt;&lt;span style=&quot;color: rgb(63, 63, 63); font-size: 18px; background-color: transparent;&quot;&gt;150?&lt;/span&gt;&lt;/div&gt;" style="rhombus;whiteSpace=wrap;html=1;fillColor=#FFFF66;" parent="1" vertex="1">
                    <mxGeometry x="1182.5" y="890" width="145" height="130" as="geometry"/>
                </mxCell>
                <mxCell id="211" value="&lt;font style=&quot;font-size: 18px;&quot;&gt;¿Es un numero entero?&lt;/font&gt;" style="rhombus;whiteSpace=wrap;html=1;fillColor=#FFFF66;" parent="1" vertex="1">
                    <mxGeometry x="1182.5" y="700" width="145" height="130" as="geometry"/>
                </mxCell>
                <mxCell id="212" value="&lt;span style=&quot;font-size: 18px;&quot;&gt;El numero debe ser&lt;/span&gt;&lt;div&gt;&lt;span style=&quot;font-size: 18px;&quot;&gt;entero&lt;/span&gt;&lt;/div&gt;" style="shape=document;whiteSpace=wrap;html=1;boundedLbl=1;fillColor=#FF6666;" parent="1" vertex="1">
                    <mxGeometry x="1440" y="722.5" width="120" height="85" as="geometry"/>
                </mxCell>
                <mxCell id="213" value="&lt;span style=&quot;font-size: 18px;&quot;&gt;No estas dentro del rango definido&lt;/span&gt;" style="shape=document;whiteSpace=wrap;html=1;boundedLbl=1;fillColor=#FF6666;" parent="1" vertex="1">
                    <mxGeometry x="1470" y="912.5" width="120" height="85" as="geometry"/>
                </mxCell>
                <mxCell id="215" value="&lt;font style=&quot;font-size: 24px;&quot;&gt;&lt;b&gt;Tema 4&lt;/b&gt;&lt;/font&gt;" style="text;html=1;align=center;verticalAlign=middle;resizable=0;points=[];autosize=1;strokeColor=none;fillColor=none;" parent="1" vertex="1">
                    <mxGeometry x="940" y="1670" width="100" height="40" as="geometry"/>
                </mxCell>
                <mxCell id="216" value="&lt;b&gt;&lt;font style=&quot;font-size: 24px;&quot;&gt;Comparador numerico con analisis detallado&lt;/font&gt;&lt;/b&gt;" style="text;html=1;align=center;verticalAlign=middle;resizable=0;points=[];autosize=1;strokeColor=none;fillColor=none;" parent="1" vertex="1">
                    <mxGeometry x="980" y="1723" width="540" height="40" as="geometry"/>
                </mxCell>
                <mxCell id="221" value="" style="edgeStyle=none;html=1;" parent="1" source="217" target="218" edge="1">
                    <mxGeometry relative="1" as="geometry"/>
                </mxCell>
                <mxCell id="217" value="INICIO" style="ellipse;whiteSpace=wrap;html=1;fillColor=#66B2FF;" parent="1" vertex="1">
                    <mxGeometry x="1140" y="1800" width="230" height="40" as="geometry"/>
                </mxCell>
                <mxCell id="222" value="" style="edgeStyle=none;html=1;" parent="1" source="218" target="219" edge="1">
                    <mxGeometry relative="1" as="geometry"/>
                </mxCell>
                <mxCell id="218" value="&lt;span style=&quot;font-size: 18px;&quot;&gt;Ingresa primer&amp;nbsp;&lt;/span&gt;&lt;div&gt;&lt;span style=&quot;font-size: 18px;&quot;&gt;numero&lt;/span&gt;&lt;/div&gt;" style="shape=parallelogram;perimeter=parallelogramPerimeter;whiteSpace=wrap;html=1;fixedSize=1;fillColor=#FFCC99;" parent="1" vertex="1">
                    <mxGeometry x="1157.5" y="1890" width="190" height="90" as="geometry"/>
                </mxCell>
                <mxCell id="223" value="" style="edgeStyle=none;html=1;" parent="1" source="219" target="220" edge="1">
                    <mxGeometry relative="1" as="geometry"/>
                </mxCell>
                <mxCell id="219" value="&lt;font style=&quot;font-size: 18px;&quot;&gt;Validar&lt;/font&gt;&lt;div&gt;&lt;span style=&quot;font-size: 18px;&quot;&gt;numero&lt;/span&gt;&lt;/div&gt;" style="rounded=0;whiteSpace=wrap;html=1;fillColor=#99FFCC;" parent="1" vertex="1">
                    <mxGeometry x="1170" y="2060" width="160" height="60" as="geometry"/>
                </mxCell>
                <mxCell id="225" style="edgeStyle=none;html=1;entryX=1;entryY=0.5;entryDx=0;entryDy=0;" parent="1" source="220" target="224" edge="1">
                    <mxGeometry relative="1" as="geometry"/>
                </mxCell>
                <mxCell id="235" value="&lt;font style=&quot;font-size: 14px;&quot;&gt;No&lt;/font&gt;" style="edgeLabel;html=1;align=center;verticalAlign=middle;resizable=0;points=[];" parent="225" vertex="1" connectable="0">
                    <mxGeometry x="-0.1146" y="2" relative="1" as="geometry">
                        <mxPoint x="-1" as="offset"/>
                    </mxGeometry>
                </mxCell>
                <mxCell id="233" style="edgeStyle=none;html=1;exitX=0.5;exitY=1;exitDx=0;exitDy=0;entryX=0.5;entryY=0;entryDx=0;entryDy=0;" parent="1" source="220" target="229" edge="1">
                    <mxGeometry relative="1" as="geometry"/>
                </mxCell>
                <mxCell id="234" value="&lt;font style=&quot;font-size: 14px;&quot;&gt;Si&lt;/font&gt;" style="edgeLabel;html=1;align=center;verticalAlign=middle;resizable=0;points=[];" parent="233" vertex="1" connectable="0">
                    <mxGeometry x="-0.0667" relative="1" as="geometry">
                        <mxPoint y="1" as="offset"/>
                    </mxGeometry>
                </mxCell>
                <mxCell id="220" value="&lt;font style=&quot;font-size: 18px;&quot;&gt;¿Es un&amp;nbsp;&lt;/font&gt;&lt;div&gt;&lt;font style=&quot;font-size: 18px;&quot;&gt;numero?&lt;/font&gt;&lt;/div&gt;" style="rhombus;whiteSpace=wrap;html=1;fillColor=#FFFF66;" parent="1" vertex="1">
                    <mxGeometry x="1170" y="2210" width="165" height="140" as="geometry"/>
                </mxCell>
                <mxCell id="226" style="edgeStyle=none;html=1;entryX=0;entryY=0.5;entryDx=0;entryDy=0;" parent="1" source="224" target="218" edge="1">
                    <mxGeometry relative="1" as="geometry">
                        <Array as="points">
                            <mxPoint x="950" y="1935"/>
                        </Array>
                    </mxGeometry>
                </mxCell>
                <mxCell id="224" value="&lt;font style=&quot;font-size: 18px;&quot;&gt;El valor debe&lt;/font&gt;&lt;div&gt;&lt;font style=&quot;font-size: 18px;&quot;&gt;ser un numero&lt;/font&gt;&lt;/div&gt;" style="shape=document;whiteSpace=wrap;html=1;boundedLbl=1;fillColor=#FF6666;" parent="1" vertex="1">
                    <mxGeometry x="880" y="2235" width="140" height="90" as="geometry"/>
                </mxCell>
                <mxCell id="237" style="edgeStyle=none;html=1;entryX=0.5;entryY=0;entryDx=0;entryDy=0;" parent="1" source="229" target="236" edge="1">
                    <mxGeometry relative="1" as="geometry"/>
                </mxCell>
                <mxCell id="229" value="&lt;span style=&quot;font-size: 18px;&quot;&gt;Ingresa segundo&lt;/span&gt;&lt;div&gt;&lt;span style=&quot;font-size: 18px;&quot;&gt;numero&lt;/span&gt;&lt;/div&gt;" style="shape=parallelogram;perimeter=parallelogramPerimeter;whiteSpace=wrap;html=1;fixedSize=1;fillColor=#FFCC99;" parent="1" vertex="1">
                    <mxGeometry x="1157.5" y="2440" width="190" height="90" as="geometry"/>
                </mxCell>
                <mxCell id="240" style="edgeStyle=none;html=1;" parent="1" source="230" target="239" edge="1">
                    <mxGeometry relative="1" as="geometry"/>
                </mxCell>
                <mxCell id="241" value="&lt;font style=&quot;font-size: 14px;&quot;&gt;No&lt;/font&gt;" style="edgeLabel;html=1;align=center;verticalAlign=middle;resizable=0;points=[];" parent="240" vertex="1" connectable="0">
                    <mxGeometry x="-0.074" y="-4" relative="1" as="geometry">
                        <mxPoint as="offset"/>
                    </mxGeometry>
                </mxCell>
                <mxCell id="244" style="edgeStyle=none;html=1;entryX=0.5;entryY=0;entryDx=0;entryDy=0;" parent="1" source="230" target="243" edge="1">
                    <mxGeometry relative="1" as="geometry"/>
                </mxCell>
                <mxCell id="245" value="&lt;font style=&quot;font-size: 14px;&quot;&gt;Si&lt;/font&gt;" style="edgeLabel;html=1;align=center;verticalAlign=middle;resizable=0;points=[];" parent="244" vertex="1" connectable="0">
                    <mxGeometry x="0.0429" y="1" relative="1" as="geometry">
                        <mxPoint as="offset"/>
                    </mxGeometry>
                </mxCell>
                <mxCell id="230" value="&lt;font style=&quot;font-size: 18px;&quot;&gt;¿Es un&amp;nbsp;&lt;/font&gt;&lt;div&gt;&lt;font style=&quot;font-size: 18px;&quot;&gt;numero?&lt;/font&gt;&lt;/div&gt;" style="rhombus;whiteSpace=wrap;html=1;fillColor=#FFFF66;" parent="1" vertex="1">
                    <mxGeometry x="1167.5" y="2770" width="165" height="140" as="geometry"/>
                </mxCell>
                <mxCell id="238" style="edgeStyle=none;html=1;" parent="1" source="236" target="230" edge="1">
                    <mxGeometry relative="1" as="geometry"/>
                </mxCell>
                <mxCell id="236" value="&lt;font style=&quot;font-size: 18px;&quot;&gt;Validar&lt;/font&gt;&lt;div&gt;&lt;span style=&quot;font-size: 18px;&quot;&gt;numero&lt;/span&gt;&lt;/div&gt;" style="rounded=0;whiteSpace=wrap;html=1;fillColor=#99FFCC;" parent="1" vertex="1">
                    <mxGeometry x="1172.5" y="2625" width="160" height="60" as="geometry"/>
                </mxCell>
                <mxCell id="242" style="edgeStyle=none;html=1;entryX=1;entryY=0.5;entryDx=0;entryDy=0;" parent="1" source="239" target="229" edge="1">
                    <mxGeometry relative="1" as="geometry">
                        <Array as="points">
                            <mxPoint x="1590" y="2485"/>
                        </Array>
                    </mxGeometry>
                </mxCell>
                <mxCell id="239" value="&lt;font style=&quot;font-size: 18px;&quot;&gt;El valor debe&lt;/font&gt;&lt;div&gt;&lt;font style=&quot;font-size: 18px;&quot;&gt;ser un numero&lt;/font&gt;&lt;/div&gt;" style="shape=document;whiteSpace=wrap;html=1;boundedLbl=1;fillColor=#FF6666;" parent="1" vertex="1">
                    <mxGeometry x="1520" y="2795" width="140" height="90" as="geometry"/>
                </mxCell>
                <mxCell id="250" style="edgeStyle=none;html=1;" parent="1" source="243" target="248" edge="1">
                    <mxGeometry relative="1" as="geometry"/>
                </mxCell>
                <mxCell id="258" value="&lt;font style=&quot;font-size: 14px;&quot;&gt;SI&lt;/font&gt;" style="edgeLabel;html=1;align=center;verticalAlign=middle;resizable=0;points=[];" parent="250" vertex="1" connectable="0">
                    <mxGeometry x="-0.167" relative="1" as="geometry">
                        <mxPoint as="offset"/>
                    </mxGeometry>
                </mxCell>
                <mxCell id="252" style="edgeStyle=none;html=1;entryX=0.5;entryY=0;entryDx=0;entryDy=0;" parent="1" source="243" target="246" edge="1">
                    <mxGeometry relative="1" as="geometry"/>
                </mxCell>
                <mxCell id="265" value="&lt;font style=&quot;font-size: 14px;&quot;&gt;No&lt;/font&gt;" style="edgeLabel;html=1;align=center;verticalAlign=middle;resizable=0;points=[];" parent="252" vertex="1" connectable="0">
                    <mxGeometry x="-0.0357" y="-1" relative="1" as="geometry">
                        <mxPoint as="offset"/>
                    </mxGeometry>
                </mxCell>
                <mxCell id="243" value="&lt;span style=&quot;font-size: 18px;&quot;&gt;&amp;nbsp;¿Num1 &amp;gt;&amp;nbsp;&lt;/span&gt;&lt;span style=&quot;background-color: transparent; color: rgb(63, 63, 63); font-size: 18px;&quot;&gt;Num2?&lt;/span&gt;" style="rhombus;whiteSpace=wrap;html=1;fillColor=#FFFF66;" parent="1" vertex="1">
                    <mxGeometry x="1155" y="2990" width="190" height="170" as="geometry"/>
                </mxCell>
                <mxCell id="259" style="edgeStyle=none;html=1;" parent="1" source="246" target="249" edge="1">
                    <mxGeometry relative="1" as="geometry"/>
                </mxCell>
                <mxCell id="260" value="&lt;font style=&quot;font-size: 14px;&quot;&gt;Si&lt;/font&gt;" style="edgeLabel;html=1;align=center;verticalAlign=middle;resizable=0;points=[];" parent="259" vertex="1" connectable="0">
                    <mxGeometry x="-0.0022" y="-2" relative="1" as="geometry">
                        <mxPoint y="1" as="offset"/>
                    </mxGeometry>
                </mxCell>
                <mxCell id="246" value="&lt;font style=&quot;font-size: 18px;&quot;&gt;¿Num1&amp;nbsp;&lt;/font&gt;&lt;span style=&quot;color: rgb(63, 63, 63); font-size: 18px; background-color: transparent;&quot;&gt;==&amp;nbsp;&lt;/span&gt;&lt;span style=&quot;color: rgb(63, 63, 63); font-size: 18px; background-color: transparent;&quot;&gt;Num2&lt;/span&gt;" style="rhombus;whiteSpace=wrap;html=1;fillColor=#FFFF66;" parent="1" vertex="1">
                    <mxGeometry x="1155" y="3240" width="190" height="170" as="geometry"/>
                </mxCell>
                <mxCell id="263" style="edgeStyle=none;html=1;entryX=1;entryY=0.5;entryDx=0;entryDy=0;" parent="1" source="248" target="261" edge="1">
                    <mxGeometry relative="1" as="geometry">
                        <Array as="points">
                            <mxPoint x="1590" y="3830"/>
                        </Array>
                    </mxGeometry>
                </mxCell>
                <mxCell id="248" value="&lt;span style=&quot;font-size: 18px;&quot;&gt;El primer&amp;nbsp;&lt;/span&gt;&lt;div&gt;&lt;span style=&quot;font-size: 18px;&quot;&gt;numero es&lt;/span&gt;&lt;/div&gt;&lt;div&gt;&lt;span style=&quot;font-size: 18px;&quot;&gt;mayor&lt;/span&gt;&lt;/div&gt;" style="shape=document;whiteSpace=wrap;html=1;boundedLbl=1;fillColor=#66FF66;" parent="1" vertex="1">
                    <mxGeometry x="1520" y="3030" width="140" height="90" as="geometry"/>
                </mxCell>
                <mxCell id="262" style="edgeStyle=none;html=1;exitX=0.5;exitY=1;exitDx=0;exitDy=0;" parent="1" source="267" target="261" edge="1">
                    <mxGeometry relative="1" as="geometry"/>
                </mxCell>
                <mxCell id="272" style="edgeStyle=none;html=1;entryX=0;entryY=0.5;entryDx=0;entryDy=0;" parent="1" source="249" target="261" edge="1">
                    <mxGeometry relative="1" as="geometry">
                        <Array as="points">
                            <mxPoint x="970" y="3830"/>
                        </Array>
                    </mxGeometry>
                </mxCell>
                <mxCell id="249" value="&lt;font style=&quot;font-size: 18px;&quot;&gt;Los numeros&lt;/font&gt;&lt;div&gt;&lt;font style=&quot;font-size: 18px;&quot;&gt;son iguales&lt;/font&gt;&lt;/div&gt;" style="shape=document;whiteSpace=wrap;html=1;boundedLbl=1;fillColor=#66FF66;" parent="1" vertex="1">
                    <mxGeometry x="900" y="3280" width="140" height="90" as="geometry"/>
                </mxCell>
                <mxCell id="261" value="&lt;font style=&quot;font-size: 18px;&quot;&gt;Fin&lt;/font&gt;" style="ellipse;whiteSpace=wrap;html=1;fillColor=#3399FF;" parent="1" vertex="1">
                    <mxGeometry x="1135" y="3810" width="230" height="40" as="geometry"/>
                </mxCell>
                <mxCell id="268" value="" style="edgeStyle=none;html=1;exitX=0.5;exitY=1;exitDx=0;exitDy=0;" parent="1" source="246" target="267" edge="1">
                    <mxGeometry relative="1" as="geometry">
                        <mxPoint x="1250" y="3410" as="sourcePoint"/>
                        <mxPoint x="1250" y="3810" as="targetPoint"/>
                    </mxGeometry>
                </mxCell>
                <mxCell id="271" value="&lt;font style=&quot;font-size: 14px;&quot;&gt;No&lt;/font&gt;" style="edgeLabel;html=1;align=center;verticalAlign=middle;resizable=0;points=[];" parent="268" vertex="1" connectable="0">
                    <mxGeometry x="-0.1692" y="-1" relative="1" as="geometry">
                        <mxPoint as="offset"/>
                    </mxGeometry>
                </mxCell>
                <mxCell id="267" value="&lt;span style=&quot;font-size: 18px;&quot;&gt;El segundo numero es mayor&lt;/span&gt;" style="shape=document;whiteSpace=wrap;html=1;boundedLbl=1;fillColor=#66FF66;" parent="1" vertex="1">
                    <mxGeometry x="1180" y="3540" width="140" height="90" as="geometry"/>
                </mxCell>
                <mxCell id="273" value="&lt;font style=&quot;font-size: 24px;&quot;&gt;&lt;b&gt;Tema 5&lt;/b&gt;&lt;/font&gt;" style="text;html=1;align=center;verticalAlign=middle;resizable=0;points=[];autosize=1;strokeColor=none;fillColor=none;" parent="1" vertex="1">
                    <mxGeometry x="1780" y="3" width="100" height="40" as="geometry"/>
                </mxCell>
                <mxCell id="274" value="&lt;font style=&quot;font-size: 24px;&quot;&gt;&lt;b&gt;Sistema de evaluacion academica con categorizacion&lt;/b&gt;&lt;/font&gt;" style="text;html=1;align=center;verticalAlign=middle;resizable=0;points=[];autosize=1;strokeColor=none;fillColor=none;" parent="1" vertex="1">
                    <mxGeometry x="1860" y="50" width="630" height="40" as="geometry"/>
                </mxCell>
                <mxCell id="277" style="edgeStyle=none;html=1;entryX=0.5;entryY=0;entryDx=0;entryDy=0;" parent="1" source="275" target="276" edge="1">
                    <mxGeometry relative="1" as="geometry"/>
                </mxCell>
                <mxCell id="275" value="INICIO" style="ellipse;whiteSpace=wrap;html=1;fillColor=#66B2FF;" parent="1" vertex="1">
                    <mxGeometry x="2040" y="110" width="230" height="40" as="geometry"/>
                </mxCell>
                <mxCell id="279" style="edgeStyle=none;html=1;" parent="1" source="276" target="278" edge="1">
                    <mxGeometry relative="1" as="geometry"/>
                </mxCell>
                <mxCell id="276" value="&lt;span style=&quot;font-size: 18px;&quot;&gt;Ingresa&amp;nbsp;&lt;/span&gt;&lt;div&gt;&lt;span style=&quot;font-size: 18px;&quot;&gt;calificacion&lt;/span&gt;&lt;/div&gt;" style="shape=parallelogram;perimeter=parallelogramPerimeter;whiteSpace=wrap;html=1;fixedSize=1;fillColor=#FFCC99;" parent="1" vertex="1">
                    <mxGeometry x="2060" y="190" width="190" height="90" as="geometry"/>
                </mxCell>
                <mxCell id="281" style="edgeStyle=none;html=1;entryX=0.5;entryY=0;entryDx=0;entryDy=0;" parent="1" source="278" target="280" edge="1">
                    <mxGeometry relative="1" as="geometry"/>
                </mxCell>
                <mxCell id="278" value="&lt;font style=&quot;font-size: 18px;&quot;&gt;Validar&lt;/font&gt;&lt;div&gt;&lt;br&gt;&lt;/div&gt;" style="rounded=0;whiteSpace=wrap;html=1;fillColor=#99FFCC;" parent="1" vertex="1">
                    <mxGeometry x="2075" y="340" width="160" height="60" as="geometry"/>
                </mxCell>
                <mxCell id="283" style="edgeStyle=none;html=1;entryX=1;entryY=0.5;entryDx=0;entryDy=0;" parent="1" source="280" target="282" edge="1">
                    <mxGeometry relative="1" as="geometry"/>
                </mxCell>
                <mxCell id="294" value="&lt;font size=&quot;3&quot;&gt;No&lt;/font&gt;" style="edgeLabel;html=1;align=center;verticalAlign=middle;resizable=0;points=[];" parent="283" vertex="1" connectable="0">
                    <mxGeometry x="-0.0086" y="2" relative="1" as="geometry">
                        <mxPoint as="offset"/>
                    </mxGeometry>
                </mxCell>
                <mxCell id="286" style="edgeStyle=none;html=1;" parent="1" source="280" target="285" edge="1">
                    <mxGeometry relative="1" as="geometry"/>
                </mxCell>
                <mxCell id="295" value="&lt;font style=&quot;font-size: 14px;&quot;&gt;Si&lt;/font&gt;" style="edgeLabel;html=1;align=center;verticalAlign=middle;resizable=0;points=[];" parent="286" vertex="1" connectable="0">
                    <mxGeometry x="0.0699" relative="1" as="geometry">
                        <mxPoint as="offset"/>
                    </mxGeometry>
                </mxCell>
                <mxCell id="280" value="&lt;font style=&quot;font-size: 18px;&quot;&gt;¿Es un&amp;nbsp;&lt;/font&gt;&lt;div&gt;&lt;font style=&quot;font-size: 18px;&quot;&gt;numero?&lt;/font&gt;&lt;/div&gt;" style="rhombus;whiteSpace=wrap;html=1;fillColor=#FFFF66;" parent="1" vertex="1">
                    <mxGeometry x="2082.5" y="485.5" width="145" height="130" as="geometry"/>
                </mxCell>
                <mxCell id="284" style="edgeStyle=none;html=1;entryX=0;entryY=0.5;entryDx=0;entryDy=0;" parent="1" source="282" target="276" edge="1">
                    <mxGeometry relative="1" as="geometry">
                        <Array as="points">
                            <mxPoint x="1840" y="235"/>
                        </Array>
                    </mxGeometry>
                </mxCell>
                <mxCell id="282" value="&lt;span style=&quot;font-size: 18px;&quot;&gt;La calificacion debe ser&lt;/span&gt;&lt;div&gt;&lt;span style=&quot;font-size: 18px;&quot;&gt;&amp;nbsp;un numero&lt;/span&gt;&lt;/div&gt;" style="shape=document;whiteSpace=wrap;html=1;boundedLbl=1;fillColor=#FF6666;" parent="1" vertex="1">
                    <mxGeometry x="1780" y="508" width="120" height="85" as="geometry"/>
                </mxCell>
                <mxCell id="291" style="edgeStyle=none;html=1;entryX=0;entryY=0.5;entryDx=0;entryDy=0;" parent="1" source="285" target="289" edge="1">
                    <mxGeometry relative="1" as="geometry"/>
                </mxCell>
                <mxCell id="292" value="&lt;font style=&quot;font-size: 14px;&quot;&gt;No&lt;/font&gt;" style="edgeLabel;html=1;align=center;verticalAlign=middle;resizable=0;points=[];" parent="291" vertex="1" connectable="0">
                    <mxGeometry x="-0.0622" y="1" relative="1" as="geometry">
                        <mxPoint as="offset"/>
                    </mxGeometry>
                </mxCell>
                <mxCell id="297" style="edgeStyle=none;html=1;entryX=0.5;entryY=0;entryDx=0;entryDy=0;" parent="1" source="285" target="296" edge="1">
                    <mxGeometry relative="1" as="geometry"/>
                </mxCell>
                <mxCell id="298" value="&lt;font style=&quot;font-size: 14px;&quot;&gt;Si&lt;/font&gt;" style="edgeLabel;html=1;align=center;verticalAlign=middle;resizable=0;points=[];" parent="297" vertex="1" connectable="0">
                    <mxGeometry x="0.0222" y="-1" relative="1" as="geometry">
                        <mxPoint y="1" as="offset"/>
                    </mxGeometry>
                </mxCell>
                <mxCell id="285" value="&lt;span style=&quot;font-size: 18px;&quot;&gt;¿Esta&amp;nbsp; &amp;nbsp;entre&amp;nbsp;&lt;/span&gt;&lt;div&gt;&lt;span style=&quot;font-size: 18px;&quot;&gt;0 y 100?&lt;/span&gt;&lt;/div&gt;" style="rhombus;whiteSpace=wrap;html=1;fillColor=#FFFF66;" parent="1" vertex="1">
                    <mxGeometry x="2082.5" y="677.5" width="145" height="130" as="geometry"/>
                </mxCell>
                <mxCell id="290" style="edgeStyle=none;html=1;entryX=1;entryY=0.5;entryDx=0;entryDy=0;" parent="1" source="289" target="276" edge="1">
                    <mxGeometry relative="1" as="geometry">
                        <Array as="points">
                            <mxPoint x="2450" y="235"/>
                        </Array>
                    </mxGeometry>
                </mxCell>
                <mxCell id="289" value="&lt;span style=&quot;font-size: 18px;&quot;&gt;La calificacion sale del rango&lt;/span&gt;" style="shape=document;whiteSpace=wrap;html=1;boundedLbl=1;fillColor=#FF6666;" parent="1" vertex="1">
                    <mxGeometry x="2390" y="700" width="120" height="85" as="geometry"/>
                </mxCell>
                <mxCell id="300" style="edgeStyle=none;html=1;entryX=1;entryY=0.5;entryDx=0;entryDy=0;" parent="1" source="296" target="299" edge="1">
                    <mxGeometry relative="1" as="geometry"/>
                </mxCell>
                <mxCell id="301" value="&lt;font style=&quot;font-size: 14px;&quot;&gt;No&lt;/font&gt;" style="edgeLabel;html=1;align=center;verticalAlign=middle;resizable=0;points=[];" parent="300" vertex="1" connectable="0">
                    <mxGeometry x="-0.1443" relative="1" as="geometry">
                        <mxPoint as="offset"/>
                    </mxGeometry>
                </mxCell>
                <mxCell id="304" style="edgeStyle=none;html=1;entryX=0.5;entryY=0;entryDx=0;entryDy=0;" parent="1" source="296" target="303" edge="1">
                    <mxGeometry relative="1" as="geometry"/>
                </mxCell>
                <mxCell id="296" value="&lt;font style=&quot;font-size: 18px;&quot;&gt;¿Calificacio&lt;/font&gt;&lt;div&gt;&lt;font style=&quot;font-size: 18px;&quot;&gt;es &amp;gt;= 70?&lt;/font&gt;&lt;/div&gt;" style="rhombus;whiteSpace=wrap;html=1;fillColor=#FFFF66;" parent="1" vertex="1">
                    <mxGeometry x="2082.5" y="890" width="145" height="130" as="geometry"/>
                </mxCell>
                <mxCell id="325" style="edgeStyle=none;html=1;entryX=0;entryY=0.5;entryDx=0;entryDy=0;" parent="1" source="299" target="318" edge="1">
                    <mxGeometry relative="1" as="geometry">
                        <mxPoint x="2030" y="2008.0000813802083" as="targetPoint"/>
                        <Array as="points">
                            <mxPoint x="1850" y="1980"/>
                        </Array>
                    </mxGeometry>
                </mxCell>
                <mxCell id="299" value="&lt;span style=&quot;font-size: 18px;&quot;&gt;Reprobado, F&lt;/span&gt;" style="shape=document;whiteSpace=wrap;html=1;boundedLbl=1;fillColor=#FF6666;" parent="1" vertex="1">
                    <mxGeometry x="1790" y="912.5" width="120" height="85" as="geometry"/>
                </mxCell>
                <mxCell id="310" style="edgeStyle=none;html=1;entryX=0.5;entryY=0;entryDx=0;entryDy=0;" parent="1" source="303" target="306" edge="1">
                    <mxGeometry relative="1" as="geometry"/>
                </mxCell>
                <mxCell id="303" value="&lt;span style=&quot;font-size: 18px;&quot;&gt;Aprobado&lt;/span&gt;" style="shape=document;whiteSpace=wrap;html=1;boundedLbl=1;fillColor=#66FF66;" parent="1" vertex="1">
                    <mxGeometry x="2095" y="1120" width="120" height="85" as="geometry"/>
                </mxCell>
                <mxCell id="311" style="edgeStyle=none;html=1;exitX=0.5;exitY=1;exitDx=0;exitDy=0;entryX=0.5;entryY=0;entryDx=0;entryDy=0;" parent="1" source="306" target="308" edge="1">
                    <mxGeometry relative="1" as="geometry"/>
                </mxCell>
                <mxCell id="320" value="&lt;font style=&quot;font-size: 14px;&quot;&gt;No&lt;/font&gt;" style="edgeLabel;html=1;align=center;verticalAlign=middle;resizable=0;points=[];" parent="311" vertex="1" connectable="0">
                    <mxGeometry x="-0.4" relative="1" as="geometry">
                        <mxPoint as="offset"/>
                    </mxGeometry>
                </mxCell>
                <mxCell id="313" style="edgeStyle=none;html=1;" parent="1" source="306" target="307" edge="1">
                    <mxGeometry relative="1" as="geometry"/>
                </mxCell>
                <mxCell id="322" value="&lt;font style=&quot;font-size: 14px;&quot;&gt;Si&lt;/font&gt;" style="edgeLabel;html=1;align=center;verticalAlign=middle;resizable=0;points=[];" parent="313" vertex="1" connectable="0">
                    <mxGeometry x="-0.0008" y="-2" relative="1" as="geometry">
                        <mxPoint as="offset"/>
                    </mxGeometry>
                </mxCell>
                <mxCell id="306" value="&lt;font style=&quot;font-size: 18px;&quot;&gt;¿Calificacio&lt;/font&gt;&lt;div&gt;&lt;font style=&quot;font-size: 18px;&quot;&gt;es &amp;gt;= 90?&lt;/font&gt;&lt;/div&gt;" style="rhombus;whiteSpace=wrap;html=1;fillColor=#FFFF66;" parent="1" vertex="1">
                    <mxGeometry x="2082.5" y="1265" width="145" height="130" as="geometry"/>
                </mxCell>
                <mxCell id="307" value="&lt;span style=&quot;font-size: 18px;&quot;&gt;A&lt;/span&gt;" style="shape=document;whiteSpace=wrap;html=1;boundedLbl=1;fillColor=#66FF66;" parent="1" vertex="1">
                    <mxGeometry x="2350" y="1287.5" width="120" height="85" as="geometry"/>
                </mxCell>
                <mxCell id="312" style="edgeStyle=none;html=1;exitX=0.5;exitY=1;exitDx=0;exitDy=0;entryX=0.5;entryY=0;entryDx=0;entryDy=0;" parent="1" source="308" edge="1">
                    <mxGeometry relative="1" as="geometry">
                        <mxPoint x="2155" y="1690" as="targetPoint"/>
                    </mxGeometry>
                </mxCell>
                <mxCell id="321" value="&lt;font style=&quot;font-size: 14px;&quot;&gt;No&lt;/font&gt;" style="edgeLabel;html=1;align=center;verticalAlign=middle;resizable=0;points=[];" parent="312" vertex="1" connectable="0">
                    <mxGeometry x="-0.0794" relative="1" as="geometry">
                        <mxPoint as="offset"/>
                    </mxGeometry>
                </mxCell>
                <mxCell id="316" style="edgeStyle=none;html=1;" parent="1" source="308" target="314" edge="1">
                    <mxGeometry relative="1" as="geometry"/>
                </mxCell>
                <mxCell id="323" value="&lt;font style=&quot;font-size: 14px;&quot;&gt;Si&lt;/font&gt;" style="edgeLabel;html=1;align=center;verticalAlign=middle;resizable=0;points=[];" parent="316" vertex="1" connectable="0">
                    <mxGeometry x="-0.0008" y="1" relative="1" as="geometry">
                        <mxPoint as="offset"/>
                    </mxGeometry>
                </mxCell>
                <mxCell id="308" value="&lt;font style=&quot;font-size: 18px;&quot;&gt;¿Calificacio&lt;/font&gt;&lt;div&gt;&lt;font style=&quot;font-size: 18px;&quot;&gt;es &amp;gt;= 80?&lt;/font&gt;&lt;/div&gt;" style="rhombus;whiteSpace=wrap;html=1;fillColor=#FFFF66;" parent="1" vertex="1">
                    <mxGeometry x="2082.5" y="1455" width="145" height="130" as="geometry"/>
                </mxCell>
                <mxCell id="327" style="edgeStyle=none;html=1;entryX=1;entryY=0.5;entryDx=0;entryDy=0;" parent="1" source="314" target="318" edge="1">
                    <mxGeometry relative="1" as="geometry">
                        <mxPoint x="2540" y="2010" as="targetPoint"/>
                        <Array as="points">
                            <mxPoint x="2540" y="1520"/>
                            <mxPoint x="2540" y="1980"/>
                        </Array>
                    </mxGeometry>
                </mxCell>
                <mxCell id="314" value="&lt;span style=&quot;font-size: 18px;&quot;&gt;B&lt;/span&gt;" style="shape=document;whiteSpace=wrap;html=1;boundedLbl=1;fillColor=#66FF66;" parent="1" vertex="1">
                    <mxGeometry x="2360" y="1477.5" width="120" height="85" as="geometry"/>
                </mxCell>
                <mxCell id="330" style="edgeStyle=none;html=1;" parent="1" source="315" target="318" edge="1">
                    <mxGeometry relative="1" as="geometry"/>
                </mxCell>
                <mxCell id="315" value="&lt;span style=&quot;font-size: 18px;&quot;&gt;C&lt;/span&gt;" style="shape=document;whiteSpace=wrap;html=1;boundedLbl=1;fillColor=#66FF66;" parent="1" vertex="1">
                    <mxGeometry x="2095" y="1700.5" width="120" height="85" as="geometry"/>
                </mxCell>
                <mxCell id="318" value="&lt;font style=&quot;font-size: 18px;&quot;&gt;Fin&lt;/font&gt;" style="ellipse;whiteSpace=wrap;html=1;fillColor=#3399FF;" parent="1" vertex="1">
                    <mxGeometry x="2040" y="1970" width="230" height="40" as="geometry"/>
                </mxCell>
                <mxCell id="329" style="edgeStyle=none;html=1;" parent="1" source="307" target="318" edge="1">
                    <mxGeometry relative="1" as="geometry">
                        <Array as="points">
                            <mxPoint x="2620" y="1330"/>
                            <mxPoint x="2620" y="2080"/>
                            <mxPoint x="2155" y="2080"/>
                        </Array>
                    </mxGeometry>
                </mxCell>
                <mxCell id="331" value="&lt;font style=&quot;font-size: 24px;&quot;&gt;&lt;b&gt;Tema 6&lt;/b&gt;&lt;/font&gt;" style="text;html=1;align=center;verticalAlign=middle;resizable=0;points=[];autosize=1;strokeColor=none;fillColor=none;" parent="1" vertex="1">
                    <mxGeometry x="1730" y="2200" width="100" height="40" as="geometry"/>
                </mxCell>
                <mxCell id="332" value="&lt;font style=&quot;font-size: 24px;&quot;&gt;&lt;b&gt;Calculadora de suma secuncial de analisis matematicos&lt;/b&gt;&lt;/font&gt;" style="text;html=1;align=center;verticalAlign=middle;resizable=0;points=[];autosize=1;strokeColor=none;fillColor=none;" parent="1" vertex="1">
                    <mxGeometry x="1810" y="2273" width="660" height="40" as="geometry"/>
                </mxCell>
                <mxCell id="335" style="edgeStyle=none;html=1;exitX=0.5;exitY=1;exitDx=0;exitDy=0;entryX=0.5;entryY=0;entryDx=0;entryDy=0;" parent="1" source="333" target="334" edge="1">
                    <mxGeometry relative="1" as="geometry"/>
                </mxCell>
                <mxCell id="333" value="INICIO" style="ellipse;whiteSpace=wrap;html=1;fillColor=#66B2FF;" parent="1" vertex="1">
                    <mxGeometry x="2060" y="2350" width="230" height="40" as="geometry"/>
                </mxCell>
                <mxCell id="338" style="edgeStyle=none;html=1;" parent="1" source="334" target="337" edge="1">
                    <mxGeometry relative="1" as="geometry"/>
                </mxCell>
                <mxCell id="334" value="&lt;span style=&quot;font-size: 18px;&quot;&gt;Ingresa numero&lt;/span&gt;&lt;div&gt;&lt;span style=&quot;font-size: 18px;&quot;&gt;(Enter para usar 10)&lt;/span&gt;&lt;/div&gt;" style="shape=parallelogram;perimeter=parallelogramPerimeter;whiteSpace=wrap;html=1;fixedSize=1;fillColor=#FFCC99;" parent="1" vertex="1">
                    <mxGeometry x="2080" y="2500" width="190" height="90" as="geometry"/>
                </mxCell>
                <mxCell id="340" style="edgeStyle=none;html=1;entryX=1;entryY=0.5;entryDx=0;entryDy=0;" parent="1" source="337" target="339" edge="1">
                    <mxGeometry relative="1" as="geometry"/>
                </mxCell>
                <mxCell id="341" value="&lt;font style=&quot;font-size: 14px;&quot;&gt;Si&lt;/font&gt;" style="edgeLabel;html=1;align=center;verticalAlign=middle;resizable=0;points=[];" parent="340" vertex="1" connectable="0">
                    <mxGeometry x="0.0132" y="-1" relative="1" as="geometry">
                        <mxPoint as="offset"/>
                    </mxGeometry>
                </mxCell>
                <mxCell id="344" style="edgeStyle=none;html=1;entryX=0.5;entryY=0;entryDx=0;entryDy=0;" parent="1" source="337" target="343" edge="1">
                    <mxGeometry relative="1" as="geometry"/>
                </mxCell>
                <mxCell id="345" value="&lt;font style=&quot;font-size: 14px;&quot;&gt;No&lt;/font&gt;" style="edgeLabel;html=1;align=center;verticalAlign=middle;resizable=0;points=[];" parent="344" vertex="1" connectable="0">
                    <mxGeometry x="-0.0767" y="-1" relative="1" as="geometry">
                        <mxPoint as="offset"/>
                    </mxGeometry>
                </mxCell>
                <mxCell id="337" value="&lt;font style=&quot;font-size: 18px;&quot;&gt;¿Esta&amp;nbsp;&lt;/font&gt;&lt;span style=&quot;color: rgb(63, 63, 63); font-size: 18px; background-color: transparent;&quot;&gt;vacio?&lt;/span&gt;" style="rhombus;whiteSpace=wrap;html=1;fillColor=#FFFF66;" parent="1" vertex="1">
                    <mxGeometry x="2095" y="2685" width="165" height="140" as="geometry"/>
                </mxCell>
                <mxCell id="373" style="edgeStyle=none;html=1;" parent="1" source="339" edge="1">
                    <mxGeometry relative="1" as="geometry">
                        <mxPoint x="2090" y="3730" as="targetPoint"/>
                        <Array as="points">
                            <mxPoint x="1910" y="3730"/>
                        </Array>
                    </mxGeometry>
                </mxCell>
                <mxCell id="339" value="&lt;font style=&quot;font-size: 18px;&quot;&gt;N=10&lt;/font&gt;" style="rounded=0;whiteSpace=wrap;html=1;fillColor=#99FFCC;" parent="1" vertex="1">
                    <mxGeometry x="1820" y="2725" width="160" height="60" as="geometry"/>
                </mxCell>
                <mxCell id="347" value="" style="edgeStyle=none;html=1;" parent="1" source="343" target="346" edge="1">
                    <mxGeometry relative="1" as="geometry">
                        <Array as="points">
                            <mxPoint x="2175" y="3020"/>
                        </Array>
                    </mxGeometry>
                </mxCell>
                <mxCell id="343" value="&lt;font style=&quot;font-size: 18px;&quot;&gt;Validacion&amp;nbsp;&lt;/font&gt;&lt;div&gt;&lt;font style=&quot;font-size: 18px;&quot;&gt;de numero&lt;/font&gt;&lt;/div&gt;" style="rounded=0;whiteSpace=wrap;html=1;fillColor=#99FFCC;" parent="1" vertex="1">
                    <mxGeometry x="2097.5" y="2920" width="160" height="60" as="geometry"/>
                </mxCell>
                <mxCell id="350" style="edgeStyle=none;html=1;entryX=0;entryY=0.5;entryDx=0;entryDy=0;" parent="1" source="346" target="349" edge="1">
                    <mxGeometry relative="1" as="geometry"/>
                </mxCell>
                <mxCell id="351" value="&lt;font style=&quot;font-size: 14px;&quot;&gt;No&lt;/font&gt;" style="edgeLabel;html=1;align=center;verticalAlign=middle;resizable=0;points=[];" parent="350" vertex="1" connectable="0">
                    <mxGeometry x="-0.1327" y="-1" relative="1" as="geometry">
                        <mxPoint x="1" as="offset"/>
                    </mxGeometry>
                </mxCell>
                <mxCell id="354" value="" style="edgeStyle=none;html=1;" parent="1" source="346" target="353" edge="1">
                    <mxGeometry relative="1" as="geometry"/>
                </mxCell>
                <mxCell id="355" value="&lt;font style=&quot;font-size: 14px;&quot;&gt;Si&lt;/font&gt;" style="edgeLabel;html=1;align=center;verticalAlign=middle;resizable=0;points=[];" parent="354" vertex="1" connectable="0">
                    <mxGeometry x="-0.0681" relative="1" as="geometry">
                        <mxPoint as="offset"/>
                    </mxGeometry>
                </mxCell>
                <mxCell id="346" value="&lt;font style=&quot;font-size: 18px;&quot;&gt;¿Es un&amp;nbsp;&lt;/font&gt;&lt;div&gt;&lt;font style=&quot;font-size: 18px;&quot;&gt;numero?&lt;/font&gt;&lt;/div&gt;" style="rhombus;whiteSpace=wrap;html=1;fillColor=#FFFF66;" parent="1" vertex="1">
                    <mxGeometry x="2092.5" y="3060" width="165" height="140" as="geometry"/>
                </mxCell>
                <mxCell id="352" style="edgeStyle=none;html=1;exitX=0.5;exitY=0;exitDx=0;exitDy=0;entryX=1;entryY=1;entryDx=0;entryDy=0;" parent="1" source="349" target="334" edge="1">
                    <mxGeometry relative="1" as="geometry">
                        <Array as="points">
                            <mxPoint x="2530" y="2590"/>
                        </Array>
                    </mxGeometry>
                </mxCell>
                <mxCell id="349" value="&lt;font style=&quot;font-size: 18px;&quot;&gt;El valor debe&lt;/font&gt;&lt;div&gt;&lt;font style=&quot;font-size: 18px;&quot;&gt;ser un numero&lt;/font&gt;&lt;/div&gt;" style="shape=document;whiteSpace=wrap;html=1;boundedLbl=1;fillColor=#FF6666;" parent="1" vertex="1">
                    <mxGeometry x="2460" y="3085" width="140" height="90" as="geometry"/>
                </mxCell>
                <mxCell id="357" style="edgeStyle=none;html=1;entryX=0;entryY=0.5;entryDx=0;entryDy=0;" parent="1" source="353" target="356" edge="1">
                    <mxGeometry relative="1" as="geometry"/>
                </mxCell>
                <mxCell id="358" value="&lt;font style=&quot;font-size: 14px;&quot;&gt;No&lt;/font&gt;" style="edgeLabel;html=1;align=center;verticalAlign=middle;resizable=0;points=[];" parent="357" vertex="1" connectable="0">
                    <mxGeometry x="-0.23" relative="1" as="geometry">
                        <mxPoint as="offset"/>
                    </mxGeometry>
                </mxCell>
                <mxCell id="361" style="edgeStyle=none;html=1;entryX=0.5;entryY=0;entryDx=0;entryDy=0;" parent="1" source="353" target="360" edge="1">
                    <mxGeometry relative="1" as="geometry"/>
                </mxCell>
                <mxCell id="369" value="&lt;font style=&quot;font-size: 14px;&quot;&gt;Si&lt;/font&gt;" style="edgeLabel;html=1;align=center;verticalAlign=middle;resizable=0;points=[];" parent="361" vertex="1" connectable="0">
                    <mxGeometry x="-0.0286" relative="1" as="geometry">
                        <mxPoint y="1" as="offset"/>
                    </mxGeometry>
                </mxCell>
                <mxCell id="353" value="&lt;font style=&quot;font-size: 18px;&quot;&gt;¿Es un numero entero?&lt;/font&gt;" style="rhombus;whiteSpace=wrap;html=1;fillColor=#FFFF66;" parent="1" vertex="1">
                    <mxGeometry x="2102.5" y="3265" width="145" height="130" as="geometry"/>
                </mxCell>
                <mxCell id="359" style="edgeStyle=none;html=1;entryX=1;entryY=0.5;entryDx=0;entryDy=0;" parent="1" source="356" target="334" edge="1">
                    <mxGeometry relative="1" as="geometry">
                        <Array as="points">
                            <mxPoint x="2680" y="3330"/>
                            <mxPoint x="2670" y="2550"/>
                        </Array>
                    </mxGeometry>
                </mxCell>
                <mxCell id="356" value="&lt;font style=&quot;font-size: 18px;&quot;&gt;El valor debe&lt;/font&gt;&lt;div&gt;&lt;font style=&quot;font-size: 18px;&quot;&gt;ser un entero&lt;/font&gt;&lt;/div&gt;" style="shape=document;whiteSpace=wrap;html=1;boundedLbl=1;fillColor=#FF6666;" parent="1" vertex="1">
                    <mxGeometry x="2460" y="3285" width="140" height="90" as="geometry"/>
                </mxCell>
                <mxCell id="363" style="edgeStyle=none;html=1;entryX=0;entryY=0.5;entryDx=0;entryDy=0;" parent="1" source="360" target="362" edge="1">
                    <mxGeometry relative="1" as="geometry"/>
                </mxCell>
                <mxCell id="367" value="&lt;font style=&quot;font-size: 14px;&quot;&gt;No&lt;/font&gt;" style="edgeLabel;html=1;align=center;verticalAlign=middle;resizable=0;points=[];" parent="363" vertex="1" connectable="0">
                    <mxGeometry x="-0.2596" relative="1" as="geometry">
                        <mxPoint as="offset"/>
                    </mxGeometry>
                </mxCell>
                <mxCell id="374" style="edgeStyle=none;html=1;entryX=0.5;entryY=0;entryDx=0;entryDy=0;" parent="1" source="360" target="371" edge="1">
                    <mxGeometry relative="1" as="geometry"/>
                </mxCell>
                <mxCell id="360" value="&lt;font style=&quot;font-size: 18px;&quot;&gt;¿El numero&amp;nbsp;&lt;/font&gt;&lt;div&gt;&lt;font style=&quot;font-size: 18px;&quot;&gt;es &amp;gt; 0?&lt;/font&gt;&lt;/div&gt;" style="rhombus;whiteSpace=wrap;html=1;fillColor=#FFFF66;" parent="1" vertex="1">
                    <mxGeometry x="2102.5" y="3470" width="145" height="130" as="geometry"/>
                </mxCell>
                <mxCell id="368" style="edgeStyle=none;html=1;entryX=1;entryY=0.25;entryDx=0;entryDy=0;" parent="1" source="362" target="334" edge="1">
                    <mxGeometry relative="1" as="geometry">
                        <Array as="points">
                            <mxPoint x="2780" y="3535"/>
                            <mxPoint x="2770" y="2524"/>
                        </Array>
                    </mxGeometry>
                </mxCell>
                <mxCell id="362" value="&lt;font style=&quot;font-size: 18px;&quot;&gt;El valor debe&lt;/font&gt;&lt;div&gt;&lt;font style=&quot;font-size: 18px;&quot;&gt;ser mayor a 0&lt;/font&gt;&lt;/div&gt;" style="shape=document;whiteSpace=wrap;html=1;boundedLbl=1;fillColor=#FF6666;" parent="1" vertex="1">
                    <mxGeometry x="2460" y="3490" width="140" height="90" as="geometry"/>
                </mxCell>
                <mxCell id="375" style="edgeStyle=none;html=1;entryX=0.5;entryY=0;entryDx=0;entryDy=0;" parent="1" source="371" target="372" edge="1">
                    <mxGeometry relative="1" as="geometry"/>
                </mxCell>
                <mxCell id="371" value="&lt;span style=&quot;font-size: 18px;&quot;&gt;Sumalternativa&lt;/span&gt;&lt;div&gt;&lt;span style=&quot;font-size: 18px;&quot;&gt;= 0&lt;/span&gt;&lt;/div&gt;" style="rounded=0;whiteSpace=wrap;html=1;fillColor=#99FFCC;" parent="1" vertex="1">
                    <mxGeometry x="2097.5" y="3700" width="160" height="60" as="geometry"/>
                </mxCell>
                <mxCell id="377" style="edgeStyle=none;html=1;entryX=0.5;entryY=0;entryDx=0;entryDy=0;" parent="1" source="372" target="376" edge="1">
                    <mxGeometry relative="1" as="geometry"/>
                </mxCell>
                <mxCell id="372" value="&lt;font style=&quot;font-size: 18px;&quot;&gt;i = 1&lt;/font&gt;" style="rounded=0;whiteSpace=wrap;html=1;fillColor=#99FFCC;" parent="1" vertex="1">
                    <mxGeometry x="2097.5" y="3850" width="160" height="60" as="geometry"/>
                </mxCell>
                <mxCell id="379" style="edgeStyle=none;html=1;entryX=0.5;entryY=0;entryDx=0;entryDy=0;" parent="1" source="376" target="378" edge="1">
                    <mxGeometry relative="1" as="geometry"/>
                </mxCell>
                <mxCell id="406" value="&lt;font style=&quot;font-size: 14px;&quot;&gt;Si&lt;/font&gt;" style="edgeLabel;html=1;align=center;verticalAlign=middle;resizable=0;points=[];" parent="379" vertex="1" connectable="0">
                    <mxGeometry x="0.0094" relative="1" as="geometry">
                        <mxPoint y="-1" as="offset"/>
                    </mxGeometry>
                </mxCell>
                <mxCell id="404" style="edgeStyle=none;html=1;exitX=1;exitY=0.5;exitDx=0;exitDy=0;" parent="1" source="376" edge="1">
                    <mxGeometry relative="1" as="geometry">
                        <mxPoint x="2270" y="4750" as="targetPoint"/>
                        <Array as="points">
                            <mxPoint x="2530" y="4040"/>
                            <mxPoint x="2540" y="4750"/>
                        </Array>
                    </mxGeometry>
                </mxCell>
                <mxCell id="408" value="&lt;font style=&quot;font-size: 14px;&quot;&gt;No&lt;/font&gt;" style="edgeLabel;html=1;align=center;verticalAlign=middle;resizable=0;points=[];" parent="404" vertex="1" connectable="0">
                    <mxGeometry x="-0.7861" relative="1" as="geometry">
                        <mxPoint x="-1" as="offset"/>
                    </mxGeometry>
                </mxCell>
                <mxCell id="376" value="&lt;font style=&quot;font-size: 18px;&quot;&gt;¿ i&amp;nbsp; &amp;lt;=&amp;nbsp; N?&lt;/font&gt;" style="rhombus;whiteSpace=wrap;html=1;fillColor=#FFFF66;" parent="1" vertex="1">
                    <mxGeometry x="2105" y="3980" width="145" height="130" as="geometry"/>
                </mxCell>
                <mxCell id="382" style="edgeStyle=none;html=1;entryX=0.5;entryY=0;entryDx=0;entryDy=0;" parent="1" source="378" target="381" edge="1">
                    <mxGeometry relative="1" as="geometry"/>
                </mxCell>
                <mxCell id="378" value="&lt;font style=&quot;font-size: 18px;&quot;&gt;sumalternativa =&lt;/font&gt;&lt;div&gt;&lt;font style=&quot;font-size: 18px;&quot;&gt;sumalternativa + i&lt;/font&gt;&lt;/div&gt;" style="rounded=0;whiteSpace=wrap;html=1;fillColor=#99FFCC;" parent="1" vertex="1">
                    <mxGeometry x="2100" y="4220" width="160" height="60" as="geometry"/>
                </mxCell>
                <mxCell id="385" style="edgeStyle=none;html=1;entryX=0.5;entryY=0;entryDx=0;entryDy=0;" parent="1" source="381" target="383" edge="1">
                    <mxGeometry relative="1" as="geometry"/>
                </mxCell>
                <mxCell id="381" value="&lt;div&gt;&lt;font style=&quot;font-size: 18px;&quot;&gt;Mostrar paso:&lt;/font&gt;&lt;/div&gt;&lt;div&gt;&lt;font style=&quot;font-size: 18px;&quot;&gt;suma = [sumalterativa]&lt;/font&gt;&lt;/div&gt;" style="shape=parallelogram;perimeter=parallelogramPerimeter;whiteSpace=wrap;html=1;fixedSize=1;fillColor=#FFCC99;" parent="1" vertex="1">
                    <mxGeometry x="2071.25" y="4360" width="217.5" height="90" as="geometry"/>
                </mxCell>
                <mxCell id="384" style="edgeStyle=none;html=1;entryX=0;entryY=0.5;entryDx=0;entryDy=0;" parent="1" source="383" target="376" edge="1">
                    <mxGeometry relative="1" as="geometry">
                        <Array as="points">
                            <mxPoint x="1880" y="4570"/>
                            <mxPoint x="1880" y="4050"/>
                        </Array>
                    </mxGeometry>
                </mxCell>
                <mxCell id="387" style="edgeStyle=none;html=1;entryX=0.5;entryY=0;entryDx=0;entryDy=0;" parent="1" source="383" target="386" edge="1">
                    <mxGeometry relative="1" as="geometry"/>
                </mxCell>
                <mxCell id="383" value="&lt;span style=&quot;font-size: 18px;&quot;&gt;i = i + 1&lt;/span&gt;" style="rounded=0;whiteSpace=wrap;html=1;fillColor=#99FFCC;" parent="1" vertex="1">
                    <mxGeometry x="2100" y="4540" width="160" height="60" as="geometry"/>
                </mxCell>
                <mxCell id="389" style="edgeStyle=none;html=1;entryX=0.5;entryY=0;entryDx=0;entryDy=0;" parent="1" source="386" target="388" edge="1">
                    <mxGeometry relative="1" as="geometry"/>
                </mxCell>
                <mxCell id="386" value="&lt;font style=&quot;font-size: 18px;&quot;&gt;SumaFormula =&lt;/font&gt;&lt;div&gt;&lt;font style=&quot;font-size: 18px;&quot;&gt;N x (N+1)/2&lt;/font&gt;&lt;/div&gt;" style="rounded=0;whiteSpace=wrap;html=1;fillColor=#99FFCC;" parent="1" vertex="1">
                    <mxGeometry x="2097.5" y="4720" width="165" height="60" as="geometry"/>
                </mxCell>
                <mxCell id="391" style="edgeStyle=none;html=1;" parent="1" source="388" edge="1">
                    <mxGeometry relative="1" as="geometry">
                        <mxPoint x="2400" y="4950" as="targetPoint"/>
                    </mxGeometry>
                </mxCell>
                <mxCell id="393" value="Si" style="edgeLabel;html=1;align=center;verticalAlign=middle;resizable=0;points=[];" parent="391" vertex="1" connectable="0">
                    <mxGeometry x="-0.1564" y="-1" relative="1" as="geometry">
                        <mxPoint as="offset"/>
                    </mxGeometry>
                </mxCell>
                <mxCell id="388" value="&lt;span style=&quot;font-size: 18px;&quot;&gt;¿Sumalternativa&lt;/span&gt;&lt;div&gt;&lt;span style=&quot;font-size: 18px;&quot;&gt;==&lt;/span&gt;&lt;/div&gt;&lt;div&gt;&lt;span style=&quot;font-size: 18px;&quot;&gt;SumaFormula?&lt;/span&gt;&lt;/div&gt;" style="rhombus;whiteSpace=wrap;html=1;fillColor=#FFFF66;" parent="1" vertex="1">
                    <mxGeometry x="2080" y="4850" width="200" height="200" as="geometry"/>
                </mxCell>
                <mxCell id="398" style="edgeStyle=none;html=1;entryX=1;entryY=0.5;entryDx=0;entryDy=0;" parent="1" source="392" target="397" edge="1">
                    <mxGeometry relative="1" as="geometry">
                        <Array as="points">
                            <mxPoint x="2470" y="5235"/>
                        </Array>
                    </mxGeometry>
                </mxCell>
                <mxCell id="392" value="&lt;font style=&quot;font-size: 18px;&quot;&gt;Resultados&lt;/font&gt;&lt;div&gt;&amp;nbsp;&lt;font style=&quot;font-size: 18px;&quot;&gt;consistentes&lt;/font&gt;&lt;/div&gt;" style="shape=document;whiteSpace=wrap;html=1;boundedLbl=1;fillColor=#66FF66;" parent="1" vertex="1">
                    <mxGeometry x="2400" y="4910" width="140" height="90" as="geometry"/>
                </mxCell>
                <mxCell id="399" style="edgeStyle=none;html=1;entryX=0;entryY=0.5;entryDx=0;entryDy=0;" parent="1" source="395" target="397" edge="1">
                    <mxGeometry relative="1" as="geometry">
                        <Array as="points">
                            <mxPoint x="1890" y="5230"/>
                        </Array>
                    </mxGeometry>
                </mxCell>
                <mxCell id="395" value="&lt;font style=&quot;font-size: 18px;&quot;&gt;Relsultados&lt;/font&gt;&lt;div&gt;&amp;nbsp;&lt;font style=&quot;font-size: 18px;&quot;&gt;diferentes&lt;/font&gt;&lt;/div&gt;" style="shape=document;whiteSpace=wrap;html=1;boundedLbl=1;fillColor=#FF6666;" parent="1" vertex="1">
                    <mxGeometry x="1820" y="4910" width="140" height="90" as="geometry"/>
                </mxCell>
                <mxCell id="396" style="edgeStyle=none;html=1;entryX=0.982;entryY=0.407;entryDx=0;entryDy=0;entryPerimeter=0;" parent="1" source="388" target="395" edge="1">
                    <mxGeometry relative="1" as="geometry"/>
                </mxCell>
                <mxCell id="400" value="&lt;font style=&quot;font-size: 14px;&quot;&gt;No&lt;/font&gt;" style="edgeLabel;html=1;align=center;verticalAlign=middle;resizable=0;points=[];" parent="396" vertex="1" connectable="0">
                    <mxGeometry x="-0.1071" y="-1" relative="1" as="geometry">
                        <mxPoint as="offset"/>
                    </mxGeometry>
                </mxCell>
                <mxCell id="402" style="edgeStyle=none;html=1;" parent="1" source="397" target="401" edge="1">
                    <mxGeometry relative="1" as="geometry"/>
                </mxCell>
                <mxCell id="397" value="&lt;font style=&quot;font-size: 18px;&quot;&gt;Suma iterativa: [valor]&lt;/font&gt;&lt;div&gt;&lt;span style=&quot;font-size: 18px;&quot;&gt;Suma formula: [valor]&lt;/span&gt;&lt;/div&gt;&lt;div&gt;&lt;span style=&quot;font-size: 18px;&quot;&gt;Numeros sumados: N&amp;nbsp;&lt;/span&gt;&lt;/div&gt;" style="shape=parallelogram;perimeter=parallelogramPerimeter;whiteSpace=wrap;html=1;fixedSize=1;fillColor=#FFCC99;" parent="1" vertex="1">
                    <mxGeometry x="2071.25" y="5190" width="217.5" height="90" as="geometry"/>
                </mxCell>
                <mxCell id="401" value="&lt;font style=&quot;font-size: 18px;&quot;&gt;Fin&lt;/font&gt;" style="ellipse;whiteSpace=wrap;html=1;fillColor=#3399FF;" parent="1" vertex="1">
                    <mxGeometry x="2062.5" y="5420" width="230" height="40" as="geometry"/>
                </mxCell>
                <mxCell id="415" value="" style="edgeStyle=none;html=1;" parent="1" source="409" target="410" edge="1">
                    <mxGeometry relative="1" as="geometry"/>
                </mxCell>
                <mxCell id="409" value="INICIO" style="ellipse;whiteSpace=wrap;html=1;fillColor=#66B2FF;" parent="1" vertex="1">
                    <mxGeometry x="2970" y="100" width="230" height="40" as="geometry"/>
                </mxCell>
                <mxCell id="414" style="edgeStyle=none;html=1;entryX=0.5;entryY=0;entryDx=0;entryDy=0;" parent="1" source="410" target="411" edge="1">
                    <mxGeometry relative="1" as="geometry"/>
                </mxCell>
                <mxCell id="410" value="&lt;span style=&quot;font-size: 18px;&quot;&gt;Ingresa&amp;nbsp;&lt;/span&gt;&lt;div&gt;&lt;span style=&quot;font-size: 18px;&quot;&gt;una base&lt;/span&gt;&lt;/div&gt;" style="shape=parallelogram;perimeter=parallelogramPerimeter;whiteSpace=wrap;html=1;fixedSize=1;fillColor=#FFCC99;" parent="1" vertex="1">
                    <mxGeometry x="2990" y="200" width="190" height="90" as="geometry"/>
                </mxCell>
                <mxCell id="413" style="edgeStyle=none;html=1;entryX=0.5;entryY=0;entryDx=0;entryDy=0;" parent="1" source="411" target="412" edge="1">
                    <mxGeometry relative="1" as="geometry"/>
                </mxCell>
                <mxCell id="411" value="&lt;font style=&quot;font-size: 18px;&quot;&gt;Validar&lt;/font&gt;&lt;div&gt;&lt;span style=&quot;font-size: 18px;&quot;&gt;numero&lt;br&gt;&lt;/span&gt;&lt;div&gt;&lt;br&gt;&lt;/div&gt;&lt;/div&gt;" style="rounded=0;whiteSpace=wrap;html=1;fillColor=#99FFCC;" parent="1" vertex="1">
                    <mxGeometry x="3005" y="350" width="160" height="60" as="geometry"/>
                </mxCell>
                <mxCell id="417" value="" style="edgeStyle=none;html=1;" parent="1" source="412" target="416" edge="1">
                    <mxGeometry relative="1" as="geometry"/>
                </mxCell>
                <mxCell id="456" value="&lt;font style=&quot;font-size: 14px;&quot;&gt;Si&lt;/font&gt;" style="edgeLabel;html=1;align=center;verticalAlign=middle;resizable=0;points=[];" parent="417" vertex="1" connectable="0">
                    <mxGeometry x="-0.0327" y="-2" relative="1" as="geometry">
                        <mxPoint as="offset"/>
                    </mxGeometry>
                </mxCell>
                <mxCell id="422" style="edgeStyle=none;html=1;entryX=1;entryY=0.5;entryDx=0;entryDy=0;" parent="1" source="412" target="419" edge="1">
                    <mxGeometry relative="1" as="geometry"/>
                </mxCell>
                <mxCell id="440" value="&lt;font style=&quot;font-size: 14px;&quot;&gt;No&lt;/font&gt;" style="edgeLabel;html=1;align=center;verticalAlign=middle;resizable=0;points=[];" parent="422" vertex="1" connectable="0">
                    <mxGeometry x="-0.1317" relative="1" as="geometry">
                        <mxPoint x="1" as="offset"/>
                    </mxGeometry>
                </mxCell>
                <mxCell id="412" value="&lt;font style=&quot;font-size: 18px;&quot;&gt;¿Es un&amp;nbsp;&lt;/font&gt;&lt;div&gt;&lt;font style=&quot;font-size: 18px;&quot;&gt;numero?&lt;/font&gt;&lt;/div&gt;" style="rhombus;whiteSpace=wrap;html=1;fillColor=#FFFF66;" parent="1" vertex="1">
                    <mxGeometry x="3012.5" y="485" width="145" height="130" as="geometry"/>
                </mxCell>
                <mxCell id="421" style="edgeStyle=none;html=1;entryX=0;entryY=0.5;entryDx=0;entryDy=0;" parent="1" source="416" target="420" edge="1">
                    <mxGeometry relative="1" as="geometry"/>
                </mxCell>
                <mxCell id="439" value="&lt;font style=&quot;font-size: 14px;&quot;&gt;No&lt;/font&gt;" style="edgeLabel;html=1;align=center;verticalAlign=middle;resizable=0;points=[];" parent="421" vertex="1" connectable="0">
                    <mxGeometry x="-0.1317" y="2" relative="1" as="geometry">
                        <mxPoint as="offset"/>
                    </mxGeometry>
                </mxCell>
                <mxCell id="426" style="edgeStyle=none;html=1;entryX=0.5;entryY=0;entryDx=0;entryDy=0;" parent="1" source="416" target="425" edge="1">
                    <mxGeometry relative="1" as="geometry"/>
                </mxCell>
                <mxCell id="438" value="&lt;font style=&quot;font-size: 14px;&quot;&gt;Si&lt;/font&gt;" style="edgeLabel;html=1;align=center;verticalAlign=middle;resizable=0;points=[];" parent="426" vertex="1" connectable="0">
                    <mxGeometry relative="1" as="geometry">
                        <mxPoint as="offset"/>
                    </mxGeometry>
                </mxCell>
                <mxCell id="416" value="&lt;font style=&quot;font-size: 18px;&quot;&gt;¿Es un numero entero?&lt;/font&gt;" style="rhombus;whiteSpace=wrap;html=1;fillColor=#FFFF66;" parent="1" vertex="1">
                    <mxGeometry x="3012.5" y="670" width="145" height="130" as="geometry"/>
                </mxCell>
                <mxCell id="419" value="&lt;span style=&quot;font-size: 18px;&quot;&gt;&amp;nbsp;La base debe ser un numero&lt;/span&gt;" style="shape=document;whiteSpace=wrap;html=1;boundedLbl=1;fillColor=#FF6666;" parent="1" vertex="1">
                    <mxGeometry x="2790" y="508" width="120" height="85" as="geometry"/>
                </mxCell>
                <mxCell id="423" style="edgeStyle=none;html=1;entryX=1;entryY=0.5;entryDx=0;entryDy=0;" parent="1" source="420" target="410" edge="1">
                    <mxGeometry relative="1" as="geometry">
                        <Array as="points">
                            <mxPoint x="3320" y="245"/>
                        </Array>
                    </mxGeometry>
                </mxCell>
                <mxCell id="420" value="&lt;span style=&quot;font-size: 18px;&quot;&gt;El numero&amp;nbsp;&lt;/span&gt;&lt;div&gt;&lt;span style=&quot;font-size: 18px;&quot;&gt;debe ser entero&lt;/span&gt;&lt;/div&gt;" style="shape=document;whiteSpace=wrap;html=1;boundedLbl=1;fillColor=#FF6666;" parent="1" vertex="1">
                    <mxGeometry x="3260" y="692.5" width="120" height="85" as="geometry"/>
                </mxCell>
                <mxCell id="424" style="edgeStyle=none;html=1;" parent="1" source="419" edge="1">
                    <mxGeometry relative="1" as="geometry">
                        <mxPoint x="3000" y="240" as="targetPoint"/>
                        <Array as="points">
                            <mxPoint x="2850" y="240"/>
                        </Array>
                    </mxGeometry>
                </mxCell>
                <mxCell id="436" style="edgeStyle=none;html=1;entryX=0.5;entryY=0;entryDx=0;entryDy=0;" parent="1" source="425" target="435" edge="1">
                    <mxGeometry relative="1" as="geometry"/>
                </mxCell>
                <mxCell id="425" value="&lt;font style=&quot;font-size: 18px;&quot;&gt;ingresar rango de multiplicacion&lt;/font&gt;&lt;div&gt;&lt;font style=&quot;font-size: 18px;&quot;&gt;(Enter para usar 10)&lt;/font&gt;&lt;/div&gt;" style="shape=parallelogram;perimeter=parallelogramPerimeter;whiteSpace=wrap;html=1;fixedSize=1;fillColor=#FFCC99;" parent="1" vertex="1">
                    <mxGeometry x="2990" y="860" width="190" height="90" as="geometry"/>
                </mxCell>
                <mxCell id="443" style="edgeStyle=none;html=1;entryX=0.5;entryY=0;entryDx=0;entryDy=0;" parent="1" source="427" target="428" edge="1">
                    <mxGeometry relative="1" as="geometry"/>
                </mxCell>
                <mxCell id="444" value="&lt;font style=&quot;font-size: 14px;&quot;&gt;Si&lt;/font&gt;" style="edgeLabel;html=1;align=center;verticalAlign=middle;resizable=0;points=[];" parent="443" vertex="1" connectable="0">
                    <mxGeometry x="-0.0044" relative="1" as="geometry">
                        <mxPoint as="offset"/>
                    </mxGeometry>
                </mxCell>
                <mxCell id="447" style="edgeStyle=none;html=1;entryX=0;entryY=0.5;entryDx=0;entryDy=0;" parent="1" source="427" target="448" edge="1">
                    <mxGeometry relative="1" as="geometry">
                        <mxPoint x="3290" y="1270" as="targetPoint"/>
                    </mxGeometry>
                </mxCell>
                <mxCell id="451" value="&lt;font style=&quot;font-size: 14px;&quot;&gt;No&lt;/font&gt;" style="edgeLabel;html=1;align=center;verticalAlign=middle;resizable=0;points=[];" parent="447" vertex="1" connectable="0">
                    <mxGeometry x="-0.1305" relative="1" as="geometry">
                        <mxPoint as="offset"/>
                    </mxGeometry>
                </mxCell>
                <mxCell id="427" value="&lt;font style=&quot;font-size: 18px;&quot;&gt;¿Es un&amp;nbsp;&lt;/font&gt;&lt;div&gt;&lt;font style=&quot;font-size: 18px;&quot;&gt;numero?&lt;/font&gt;&lt;/div&gt;" style="rhombus;whiteSpace=wrap;html=1;fillColor=#FFFF66;" parent="1" vertex="1">
                    <mxGeometry x="3012.5" y="1205" width="145" height="130" as="geometry"/>
                </mxCell>
                <mxCell id="429" style="edgeStyle=none;html=1;entryX=0;entryY=0.5;entryDx=0;entryDy=0;" parent="1" source="428" target="431" edge="1">
                    <mxGeometry relative="1" as="geometry">
                        <mxPoint x="3230" y="1315" as="targetPoint"/>
                    </mxGeometry>
                </mxCell>
                <mxCell id="433" value="&lt;font style=&quot;font-size: 14px;&quot;&gt;No&lt;/font&gt;" style="edgeLabel;html=1;align=center;verticalAlign=middle;resizable=0;points=[];" parent="429" vertex="1" connectable="0">
                    <mxGeometry x="-0.0927" y="1" relative="1" as="geometry">
                        <mxPoint x="1" as="offset"/>
                    </mxGeometry>
                </mxCell>
                <mxCell id="458" style="edgeStyle=none;html=1;entryX=0.5;entryY=0;entryDx=0;entryDy=0;" parent="1" source="428" target="457" edge="1">
                    <mxGeometry relative="1" as="geometry"/>
                </mxCell>
                <mxCell id="459" value="&lt;font style=&quot;font-size: 14px;&quot;&gt;Si&lt;/font&gt;" style="edgeLabel;html=1;align=center;verticalAlign=middle;resizable=0;points=[];" parent="458" vertex="1" connectable="0">
                    <mxGeometry x="0.0301" y="-2" relative="1" as="geometry">
                        <mxPoint as="offset"/>
                    </mxGeometry>
                </mxCell>
                <mxCell id="428" value="&lt;font style=&quot;font-size: 18px;&quot;&gt;¿Es un&amp;nbsp;&amp;nbsp;&lt;/font&gt;&lt;div&gt;&lt;font style=&quot;font-size: 18px;&quot;&gt;numero entero positivo?&lt;/font&gt;&lt;/div&gt;" style="rhombus;whiteSpace=wrap;html=1;fillColor=#FFFF66;" parent="1" vertex="1">
                    <mxGeometry x="3012.5" y="1425" width="145" height="130" as="geometry"/>
                </mxCell>
                <mxCell id="434" style="edgeStyle=none;html=1;entryX=1;entryY=0.5;entryDx=0;entryDy=0;" parent="1" source="431" target="425" edge="1">
                    <mxGeometry relative="1" as="geometry">
                        <Array as="points">
                            <mxPoint x="3430" y="1488"/>
                            <mxPoint x="3420" y="910"/>
                        </Array>
                    </mxGeometry>
                </mxCell>
                <mxCell id="431" value="&lt;span style=&quot;font-size: 18px;&quot;&gt;El numero&amp;nbsp;&lt;/span&gt;&lt;div&gt;&lt;span style=&quot;font-size: 18px;&quot;&gt;debe ser entero positivo&lt;/span&gt;&lt;/div&gt;" style="shape=document;whiteSpace=wrap;html=1;boundedLbl=1;fillColor=#FF6666;" parent="1" vertex="1">
                    <mxGeometry x="3280" y="1445" width="120" height="85" as="geometry"/>
                </mxCell>
                <mxCell id="441" style="edgeStyle=none;html=1;entryX=0.5;entryY=0;entryDx=0;entryDy=0;" parent="1" source="435" target="427" edge="1">
                    <mxGeometry relative="1" as="geometry"/>
                </mxCell>
                <mxCell id="442" value="&lt;font style=&quot;font-size: 14px;&quot;&gt;No&lt;/font&gt;" style="edgeLabel;html=1;align=center;verticalAlign=middle;resizable=0;points=[];" parent="441" vertex="1" connectable="0">
                    <mxGeometry x="0.0646" relative="1" as="geometry">
                        <mxPoint as="offset"/>
                    </mxGeometry>
                </mxCell>
                <mxCell id="445" style="edgeStyle=none;html=1;" parent="1" source="435" edge="1">
                    <mxGeometry relative="1" as="geometry">
                        <mxPoint x="2900" y="1075" as="targetPoint"/>
                    </mxGeometry>
                </mxCell>
                <mxCell id="452" value="&lt;font style=&quot;font-size: 14px;&quot;&gt;Si&lt;/font&gt;" style="edgeLabel;html=1;align=center;verticalAlign=middle;resizable=0;points=[];" parent="445" vertex="1" connectable="0">
                    <mxGeometry x="-0.0064" relative="1" as="geometry">
                        <mxPoint as="offset"/>
                    </mxGeometry>
                </mxCell>
                <mxCell id="435" value="&lt;span style=&quot;font-size: 18px;&quot;&gt;¿Esta vacio?&lt;/span&gt;" style="rhombus;whiteSpace=wrap;html=1;fillColor=#FFFF66;" parent="1" vertex="1">
                    <mxGeometry x="3012.5" y="1010" width="145" height="130" as="geometry"/>
                </mxCell>
                <mxCell id="467" style="edgeStyle=none;html=1;" parent="1" source="446" edge="1">
                    <mxGeometry relative="1" as="geometry">
                        <mxPoint x="3000" y="1880" as="targetPoint"/>
                        <Array as="points">
                            <mxPoint x="2820" y="1880"/>
                        </Array>
                    </mxGeometry>
                </mxCell>
                <mxCell id="446" value="&lt;div&gt;&lt;div&gt;&lt;span style=&quot;font-size: 18px;&quot;&gt;Rango = 10&lt;/span&gt;&lt;/div&gt;&lt;/div&gt;" style="rounded=0;whiteSpace=wrap;html=1;fillColor=#99FFCC;" parent="1" vertex="1">
                    <mxGeometry x="2740" y="1045" width="160" height="60" as="geometry"/>
                </mxCell>
                <mxCell id="449" style="edgeStyle=none;html=1;entryX=1;entryY=1;entryDx=0;entryDy=0;" parent="1" source="448" target="425" edge="1">
                    <mxGeometry relative="1" as="geometry">
                        <Array as="points">
                            <mxPoint x="3320" y="940"/>
                        </Array>
                    </mxGeometry>
                </mxCell>
                <mxCell id="448" value="&lt;span style=&quot;font-size: 18px;&quot;&gt;Debe ser un numero&lt;/span&gt;" style="shape=document;whiteSpace=wrap;html=1;boundedLbl=1;fillColor=#FF6666;" parent="1" vertex="1">
                    <mxGeometry x="3267.5" y="1225" width="120" height="85" as="geometry"/>
                </mxCell>
                <mxCell id="461" style="edgeStyle=none;html=1;entryX=0;entryY=0.5;entryDx=0;entryDy=0;" parent="1" source="457" target="460" edge="1">
                    <mxGeometry relative="1" as="geometry"/>
                </mxCell>
                <mxCell id="462" value="&lt;font style=&quot;font-size: 14px;&quot;&gt;No&lt;/font&gt;" style="edgeLabel;html=1;align=center;verticalAlign=middle;resizable=0;points=[];" parent="461" vertex="1" connectable="0">
                    <mxGeometry x="-0.0962" y="-1" relative="1" as="geometry">
                        <mxPoint as="offset"/>
                    </mxGeometry>
                </mxCell>
                <mxCell id="503" style="edgeStyle=none;html=1;" parent="1" source="457" target="502" edge="1">
                    <mxGeometry relative="1" as="geometry"/>
                </mxCell>
                <mxCell id="506" value="&lt;span style=&quot;font-size: 14px;&quot;&gt;Si&lt;/span&gt;" style="edgeLabel;html=1;align=center;verticalAlign=middle;resizable=0;points=[];" parent="503" vertex="1" connectable="0">
                    <mxGeometry x="-0.4063" y="-1" relative="1" as="geometry">
                        <mxPoint as="offset"/>
                    </mxGeometry>
                </mxCell>
                <mxCell id="457" value="&lt;font style=&quot;font-size: 18px;&quot;&gt;¿Rango &amp;lt;= 20?&lt;/font&gt;" style="rhombus;whiteSpace=wrap;html=1;fillColor=#FFFF66;" parent="1" vertex="1">
                    <mxGeometry x="3012.5" y="1655.5" width="145" height="130" as="geometry"/>
                </mxCell>
                <mxCell id="463" style="edgeStyle=none;html=1;entryX=0.999;entryY=0.112;entryDx=0;entryDy=0;entryPerimeter=0;" parent="1" source="460" target="425" edge="1">
                    <mxGeometry relative="1" as="geometry">
                        <mxPoint x="3180" y="796.5882783777573" as="targetPoint"/>
                        <Array as="points">
                            <mxPoint x="3510" y="1720"/>
                            <mxPoint x="3490" y="870"/>
                        </Array>
                    </mxGeometry>
                </mxCell>
                <mxCell id="460" value="&lt;span style=&quot;font-size: 18px;&quot;&gt;El rango debe ser mayor o igual a 20&lt;/span&gt;" style="shape=document;whiteSpace=wrap;html=1;boundedLbl=1;fillColor=#FF6666;" parent="1" vertex="1">
                    <mxGeometry x="3310" y="1678" width="120" height="85" as="geometry"/>
                </mxCell>
                <mxCell id="471" style="edgeStyle=none;html=1;entryX=0;entryY=0.5;entryDx=0;entryDy=0;" parent="1" source="464" target="470" edge="1">
                    <mxGeometry relative="1" as="geometry"/>
                </mxCell>
                <mxCell id="464" value="&lt;font style=&quot;font-size: 18px;&quot;&gt;Producto = base * i&lt;/font&gt;" style="rounded=0;whiteSpace=wrap;html=1;fillColor=#99FFCC;" parent="1" vertex="1">
                    <mxGeometry x="3005" y="2130" width="165" height="60" as="geometry"/>
                </mxCell>
                <mxCell id="479" style="edgeStyle=none;html=1;entryX=0.5;entryY=0;entryDx=0;entryDy=0;" parent="1" source="470" target="477" edge="1">
                    <mxGeometry relative="1" as="geometry"/>
                </mxCell>
                <mxCell id="470" value="&lt;font style=&quot;font-size: 18px;&quot;&gt;base * i&amp;nbsp; = Producto&lt;/font&gt;" style="shape=document;whiteSpace=wrap;html=1;boundedLbl=1;fillColor=#66FF66;" parent="1" vertex="1">
                    <mxGeometry x="3310" y="2115" width="120" height="85" as="geometry"/>
                </mxCell>
                <mxCell id="476" style="edgeStyle=none;html=1;" parent="1" source="473" target="464" edge="1">
                    <mxGeometry relative="1" as="geometry">
                        <mxPoint x="3080" y="2050" as="targetPoint"/>
                    </mxGeometry>
                </mxCell>
                <mxCell id="473" value="&lt;span style=&quot;font-size: 18px;&quot;&gt;i = 1&lt;/span&gt;" style="rounded=0;whiteSpace=wrap;html=1;fillColor=#99FFCC;" parent="1" vertex="1">
                    <mxGeometry x="3005" y="1990" width="165" height="60" as="geometry"/>
                </mxCell>
                <mxCell id="481" style="edgeStyle=none;html=1;entryX=0.5;entryY=0;entryDx=0;entryDy=0;" parent="1" source="477" target="480" edge="1">
                    <mxGeometry relative="1" as="geometry"/>
                </mxCell>
                <mxCell id="477" value="&lt;span style=&quot;font-size: 18px;&quot;&gt;Suma total =&amp;nbsp; suma total + producto&lt;/span&gt;&lt;div&gt;&lt;br&gt;&lt;/div&gt;" style="rounded=0;whiteSpace=wrap;html=1;fillColor=#99FFCC;" parent="1" vertex="1">
                    <mxGeometry x="3223.75" y="2290" width="292.5" height="60" as="geometry"/>
                </mxCell>
                <mxCell id="500" style="edgeStyle=none;html=1;entryX=1;entryY=0.5;entryDx=0;entryDy=0;" parent="1" source="480" target="483" edge="1">
                    <mxGeometry relative="1" as="geometry">
                        <Array as="points">
                            <mxPoint x="3230" y="2550"/>
                            <mxPoint x="3230" y="2455"/>
                        </Array>
                    </mxGeometry>
                </mxCell>
                <mxCell id="480" value="&lt;font style=&quot;font-size: 14px;&quot;&gt;i = 1 + 1&lt;/font&gt;" style="rounded=0;whiteSpace=wrap;html=1;fillColor=#99FFCC;" parent="1" vertex="1">
                    <mxGeometry x="3287.5" y="2520" width="165" height="60" as="geometry"/>
                </mxCell>
                <mxCell id="488" style="edgeStyle=none;html=1;" parent="1" source="483" target="464" edge="1">
                    <mxGeometry relative="1" as="geometry"/>
                </mxCell>
                <mxCell id="490" value="&lt;font style=&quot;font-size: 14px;&quot;&gt;Si&lt;/font&gt;" style="edgeLabel;html=1;align=center;verticalAlign=middle;resizable=0;points=[];" parent="488" vertex="1" connectable="0">
                    <mxGeometry x="-0.1434" relative="1" as="geometry">
                        <mxPoint as="offset"/>
                    </mxGeometry>
                </mxCell>
                <mxCell id="492" style="edgeStyle=none;html=1;" parent="1" source="483" target="491" edge="1">
                    <mxGeometry relative="1" as="geometry"/>
                </mxCell>
                <mxCell id="497" value="&lt;font style=&quot;font-size: 14px;&quot;&gt;No&lt;/font&gt;" style="edgeLabel;html=1;align=center;verticalAlign=middle;resizable=0;points=[];" parent="492" vertex="1" connectable="0">
                    <mxGeometry x="0.084" relative="1" as="geometry">
                        <mxPoint as="offset"/>
                    </mxGeometry>
                </mxCell>
                <mxCell id="483" value="&lt;font style=&quot;font-size: 18px;&quot;&gt;¿i&amp;nbsp; &amp;lt;=&amp;nbsp; Rango?&lt;/font&gt;" style="rhombus;whiteSpace=wrap;html=1;fillColor=#FFFF66;" parent="1" vertex="1">
                    <mxGeometry x="3015" y="2390" width="145" height="130" as="geometry"/>
                </mxCell>
                <mxCell id="491" value="&lt;span style=&quot;font-size: 18px;&quot;&gt;Total&lt;/span&gt;" style="shape=document;whiteSpace=wrap;html=1;boundedLbl=1;fillColor=#66FF66;" parent="1" vertex="1">
                    <mxGeometry x="3027.5" y="2600" width="120" height="85" as="geometry"/>
                </mxCell>
                <mxCell id="498" value="&lt;font style=&quot;font-size: 18px;&quot;&gt;Fin&lt;/font&gt;" style="ellipse;whiteSpace=wrap;html=1;fillColor=#3399FF;" parent="1" vertex="1">
                    <mxGeometry x="2970" y="2820" width="230" height="40" as="geometry"/>
                </mxCell>
                <mxCell id="499" style="edgeStyle=none;html=1;entryX=0.5;entryY=0;entryDx=0;entryDy=0;" parent="1" source="491" target="498" edge="1">
                    <mxGeometry relative="1" as="geometry"/>
                </mxCell>
                <mxCell id="505" style="edgeStyle=none;html=1;entryX=0.5;entryY=0;entryDx=0;entryDy=0;" parent="1" source="502" target="473" edge="1">
                    <mxGeometry relative="1" as="geometry"/>
                </mxCell>
                <mxCell id="502" value="&lt;font style=&quot;font-size: 14px;&quot;&gt;Suma total = 0&lt;/font&gt;" style="rounded=0;whiteSpace=wrap;html=1;fillColor=#99FFCC;" parent="1" vertex="1">
                    <mxGeometry x="3002.5" y="1850" width="165" height="60" as="geometry"/>
                </mxCell>
                <mxCell id="507" value="&lt;font style=&quot;font-size: 24px;&quot;&gt;&lt;b&gt;Tema 7&lt;/b&gt;&lt;/font&gt;" style="text;html=1;align=center;verticalAlign=middle;resizable=0;points=[];autosize=1;strokeColor=none;fillColor=none;" parent="1" vertex="1">
                    <mxGeometry x="2790" width="100" height="40" as="geometry"/>
                </mxCell>
                <mxCell id="509" value="&lt;font style=&quot;font-size: 24px;&quot;&gt;&lt;b&gt;Generador de tablas de multplicar personalizado&lt;/b&gt;&lt;/font&gt;" style="text;html=1;align=center;verticalAlign=middle;resizable=0;points=[];autosize=1;strokeColor=none;fillColor=none;" parent="1" vertex="1">
                    <mxGeometry x="2795" y="40" width="580" height="40" as="geometry"/>
                </mxCell>
                <mxCell id="510" value="&lt;font style=&quot;font-size: 24px;&quot;&gt;&lt;b&gt;Tema 8&lt;/b&gt;&lt;/font&gt;" style="text;html=1;align=center;verticalAlign=middle;resizable=0;points=[];autosize=1;strokeColor=none;fillColor=none;" parent="1" vertex="1">
                    <mxGeometry x="2952.5" y="2963" width="100" height="40" as="geometry"/>
                </mxCell>
                <mxCell id="513" style="edgeStyle=none;html=1;entryX=0.5;entryY=0;entryDx=0;entryDy=0;" parent="1" source="511" target="512" edge="1">
                    <mxGeometry relative="1" as="geometry"/>
                </mxCell>
                <mxCell id="511" value="INICIO" style="ellipse;whiteSpace=wrap;html=1;fillColor=#66B2FF;" parent="1" vertex="1">
                    <mxGeometry x="3190" y="3085" width="230" height="40" as="geometry"/>
                </mxCell>
                <mxCell id="515" style="edgeStyle=none;html=1;entryX=0.5;entryY=0;entryDx=0;entryDy=0;" parent="1" source="512" target="514" edge="1">
                    <mxGeometry relative="1" as="geometry"/>
                </mxCell>
                <mxCell id="512" value="&lt;span style=&quot;font-size: 18px;&quot;&gt;Ingresa&amp;nbsp;&lt;/span&gt;&lt;span style=&quot;color: rgb(63, 63, 63); font-size: 18px; background-color: transparent;&quot;&gt;3 o mas&lt;/span&gt;&lt;div&gt;&lt;span style=&quot;font-size: 18px;&quot;&gt;&amp;nbsp;numeros&lt;/span&gt;&lt;/div&gt;" style="shape=parallelogram;perimeter=parallelogramPerimeter;whiteSpace=wrap;html=1;fixedSize=1;fillColor=#FFCC99;" parent="1" vertex="1">
                    <mxGeometry x="3208.75" y="3210" width="190" height="90" as="geometry"/>
                </mxCell>
                <mxCell id="517" style="edgeStyle=none;html=1;entryX=0.5;entryY=0;entryDx=0;entryDy=0;" parent="1" source="514" target="516" edge="1">
                    <mxGeometry relative="1" as="geometry"/>
                </mxCell>
                <mxCell id="514" value="&lt;font style=&quot;font-size: 18px;&quot;&gt;Validacion&amp;nbsp;&lt;/font&gt;&lt;div&gt;&lt;font style=&quot;font-size: 18px;&quot;&gt;de numero&lt;/font&gt;&lt;/div&gt;" style="rounded=0;whiteSpace=wrap;html=1;fillColor=#99FFCC;" parent="1" vertex="1">
                    <mxGeometry x="3223.75" y="3410" width="160" height="60" as="geometry"/>
                </mxCell>
                <mxCell id="519" style="edgeStyle=none;html=1;entryX=1;entryY=0.5;entryDx=0;entryDy=0;" parent="1" source="516" target="518" edge="1">
                    <mxGeometry relative="1" as="geometry">
                        <mxPoint x="3100" y="3630" as="targetPoint"/>
                    </mxGeometry>
                </mxCell>
                <mxCell id="525" value="&lt;font style=&quot;font-size: 14px;&quot;&gt;No&lt;/font&gt;" style="edgeLabel;html=1;align=center;verticalAlign=middle;resizable=0;points=[];" parent="519" vertex="1" connectable="0">
                    <mxGeometry x="-0.0362" y="1" relative="1" as="geometry">
                        <mxPoint as="offset"/>
                    </mxGeometry>
                </mxCell>
                <mxCell id="523" style="edgeStyle=none;html=1;entryX=0.5;entryY=0;entryDx=0;entryDy=0;" parent="1" source="516" target="521" edge="1">
                    <mxGeometry relative="1" as="geometry"/>
                </mxCell>
                <mxCell id="526" value="&lt;font style=&quot;font-size: 14px;&quot;&gt;Si&lt;/font&gt;" style="edgeLabel;html=1;align=center;verticalAlign=middle;resizable=0;points=[];" parent="523" vertex="1" connectable="0">
                    <mxGeometry x="-0.1531" y="-1" relative="1" as="geometry">
                        <mxPoint as="offset"/>
                    </mxGeometry>
                </mxCell>
                <mxCell id="516" value="&lt;span style=&quot;font-size: 18px;&quot;&gt;¿Son almenos 3 numeros?&lt;/span&gt;" style="rhombus;whiteSpace=wrap;html=1;fillColor=#FFFF66;" parent="1" vertex="1">
                    <mxGeometry x="3222.5" y="3560" width="165" height="140" as="geometry"/>
                </mxCell>
                <mxCell id="520" style="edgeStyle=none;html=1;entryX=0;entryY=0.5;entryDx=0;entryDy=0;" parent="1" source="518" target="512" edge="1">
                    <mxGeometry relative="1" as="geometry">
                        <Array as="points">
                            <mxPoint x="3020" y="3250"/>
                        </Array>
                    </mxGeometry>
                </mxCell>
                <mxCell id="518" value="&lt;span style=&quot;font-size: 18px;&quot;&gt;Deben ser almenos 3 numeros&lt;/span&gt;" style="shape=document;whiteSpace=wrap;html=1;boundedLbl=1;fillColor=#FF6666;" parent="1" vertex="1">
                    <mxGeometry x="2950" y="3585" width="140" height="90" as="geometry"/>
                </mxCell>
                <mxCell id="528" style="edgeStyle=none;html=1;entryX=0.5;entryY=0;entryDx=0;entryDy=0;" parent="1" source="521" target="527" edge="1">
                    <mxGeometry relative="1" as="geometry"/>
                </mxCell>
                <mxCell id="521" value="&lt;span style=&quot;font-size: 18px;&quot;&gt;Contador = 0&lt;/span&gt;&lt;div&gt;&lt;span style=&quot;font-size: 18px;&quot;&gt;Suma = 0&lt;/span&gt;&lt;/div&gt;&lt;div&gt;&lt;span style=&quot;font-size: 18px;&quot;&gt;Lista = [ ]&lt;/span&gt;&lt;/div&gt;" style="rounded=0;whiteSpace=wrap;html=1;fillColor=#99FFCC;" parent="1" vertex="1">
                    <mxGeometry x="3223.75" y="3780" width="160" height="80" as="geometry"/>
                </mxCell>
                <mxCell id="530" style="edgeStyle=none;html=1;entryX=1.005;entryY=0.624;entryDx=0;entryDy=0;entryPerimeter=0;" parent="1" source="527" target="549" edge="1">
                    <mxGeometry relative="1" as="geometry">
                        <mxPoint x="3530" y="4020" as="targetPoint"/>
                        <Array as="points">
                            <mxPoint x="3720" y="4020"/>
                            <mxPoint x="3720" y="4850"/>
                        </Array>
                    </mxGeometry>
                </mxCell>
                <mxCell id="551" value="&lt;font style=&quot;font-size: 14px;&quot;&gt;No&lt;/font&gt;" style="edgeLabel;html=1;align=center;verticalAlign=middle;resizable=0;points=[];" parent="530" vertex="1" connectable="0">
                    <mxGeometry x="-0.8446" y="-2" relative="1" as="geometry">
                        <mxPoint as="offset"/>
                    </mxGeometry>
                </mxCell>
                <mxCell id="533" style="edgeStyle=none;html=1;" parent="1" source="527" target="532" edge="1">
                    <mxGeometry relative="1" as="geometry"/>
                </mxCell>
                <mxCell id="542" value="&lt;font style=&quot;font-size: 14px;&quot;&gt;Si&lt;/font&gt;" style="edgeLabel;html=1;align=center;verticalAlign=middle;resizable=0;points=[];" parent="533" vertex="1" connectable="0">
                    <mxGeometry x="-0.0261" relative="1" as="geometry">
                        <mxPoint as="offset"/>
                    </mxGeometry>
                </mxCell>
                <mxCell id="527" value="&lt;span style=&quot;font-size: 18px;&quot;&gt;¿Contador &amp;lt; N?&lt;/span&gt;" style="rhombus;whiteSpace=wrap;html=1;fillColor=#FFFF66;" parent="1" vertex="1">
                    <mxGeometry x="3221.25" y="3950" width="165" height="140" as="geometry"/>
                </mxCell>
                <mxCell id="535" style="edgeStyle=none;html=1;" parent="1" source="532" target="534" edge="1">
                    <mxGeometry relative="1" as="geometry"/>
                </mxCell>
                <mxCell id="532" value="&lt;font style=&quot;font-size: 18px;&quot;&gt;ingresa un&amp;nbsp;&lt;/font&gt;&lt;div&gt;&lt;font style=&quot;font-size: 18px;&quot;&gt;&amp;nbsp;numero&lt;/font&gt;&lt;/div&gt;" style="shape=parallelogram;perimeter=parallelogramPerimeter;whiteSpace=wrap;html=1;fixedSize=1;fillColor=#FFCC99;" parent="1" vertex="1">
                    <mxGeometry x="3210" y="4150" width="190" height="90" as="geometry"/>
                </mxCell>
                <mxCell id="537" style="edgeStyle=none;html=1;entryX=0.5;entryY=0;entryDx=0;entryDy=0;" parent="1" source="534" target="536" edge="1">
                    <mxGeometry relative="1" as="geometry"/>
                </mxCell>
                <mxCell id="534" value="&lt;font style=&quot;font-size: 18px;&quot;&gt;Validacion&amp;nbsp;&lt;/font&gt;&lt;div&gt;&lt;font style=&quot;font-size: 18px;&quot;&gt;de numero&lt;/font&gt;&lt;/div&gt;" style="rounded=0;whiteSpace=wrap;html=1;fillColor=#99FFCC;" parent="1" vertex="1">
                    <mxGeometry x="3225" y="4300" width="160" height="60" as="geometry"/>
                </mxCell>
                <mxCell id="541" style="edgeStyle=none;html=1;entryX=0;entryY=0.5;entryDx=0;entryDy=0;" parent="1" source="536" target="539" edge="1">
                    <mxGeometry relative="1" as="geometry"/>
                </mxCell>
                <mxCell id="543" value="&lt;font style=&quot;font-size: 14px;&quot;&gt;No&lt;/font&gt;" style="edgeLabel;html=1;align=center;verticalAlign=middle;resizable=0;points=[];" parent="541" vertex="1" connectable="0">
                    <mxGeometry x="-0.0974" y="-1" relative="1" as="geometry">
                        <mxPoint as="offset"/>
                    </mxGeometry>
                </mxCell>
                <mxCell id="546" style="edgeStyle=none;html=1;entryX=0.5;entryY=0;entryDx=0;entryDy=0;" parent="1" source="536" target="544" edge="1">
                    <mxGeometry relative="1" as="geometry"/>
                </mxCell>
                <mxCell id="547" value="&lt;font style=&quot;font-size: 14px;&quot;&gt;Si&lt;/font&gt;" style="edgeLabel;html=1;align=center;verticalAlign=middle;resizable=0;points=[];" parent="546" vertex="1" connectable="0">
                    <mxGeometry x="-0.0096" relative="1" as="geometry">
                        <mxPoint as="offset"/>
                    </mxGeometry>
                </mxCell>
                <mxCell id="536" value="&lt;span style=&quot;font-size: 18px;&quot;&gt;¿Es un numero?&lt;/span&gt;" style="rhombus;whiteSpace=wrap;html=1;fillColor=#FFFF66;" parent="1" vertex="1">
                    <mxGeometry x="3221.25" y="4440" width="165" height="140" as="geometry"/>
                </mxCell>
                <mxCell id="540" style="edgeStyle=none;html=1;entryX=1;entryY=0.5;entryDx=0;entryDy=0;" parent="1" source="539" target="532" edge="1">
                    <mxGeometry relative="1" as="geometry">
                        <Array as="points">
                            <mxPoint x="3590" y="4195"/>
                        </Array>
                    </mxGeometry>
                </mxCell>
                <mxCell id="539" value="&lt;span style=&quot;font-size: 18px;&quot;&gt;El valor debe ser un numero&lt;/span&gt;" style="shape=document;whiteSpace=wrap;html=1;boundedLbl=1;fillColor=#FF6666;" parent="1" vertex="1">
                    <mxGeometry x="3520" y="4465" width="140" height="90" as="geometry"/>
                </mxCell>
                <mxCell id="548" style="edgeStyle=none;html=1;entryX=0;entryY=0.5;entryDx=0;entryDy=0;" parent="1" source="544" target="527" edge="1">
                    <mxGeometry relative="1" as="geometry">
                        <Array as="points">
                            <mxPoint x="3090" y="4690"/>
                            <mxPoint x="3090" y="4020"/>
                        </Array>
                    </mxGeometry>
                </mxCell>
                <mxCell id="550" style="edgeStyle=none;html=1;entryX=0.5;entryY=0;entryDx=0;entryDy=0;" parent="1" source="544" target="549" edge="1">
                    <mxGeometry relative="1" as="geometry"/>
                </mxCell>
                <mxCell id="544" value="&lt;br&gt;&lt;font style=&quot;font-size: 18px;&quot;&gt;Agregar a lista, suma+=num, contador++&lt;br&gt;&lt;/font&gt;" style="rounded=0;whiteSpace=wrap;html=1;fillColor=#99FFCC;" parent="1" vertex="1">
                    <mxGeometry x="3225" y="4650" width="160" height="80" as="geometry"/>
                </mxCell>
                <mxCell id="554" style="edgeStyle=none;html=1;entryX=0.5;entryY=0;entryDx=0;entryDy=0;" parent="1" source="549" edge="1">
                    <mxGeometry relative="1" as="geometry">
                        <mxPoint x="3302.5" y="4970" as="targetPoint"/>
                    </mxGeometry>
                </mxCell>
                <mxCell id="549" value="&lt;font style=&quot;font-size: 18px;&quot;&gt;Calcular promedio = suma/n&quot;&lt;br/&gt;7&lt;/font&gt;" style="rounded=0;whiteSpace=wrap;html=1;fillColor=#99FFCC;" parent="1" vertex="1">
                    <mxGeometry x="3220" y="4810" width="165" height="60" as="geometry"/>
                </mxCell>
                <mxCell id="557" style="edgeStyle=none;html=1;" parent="1" source="553" target="556" edge="1">
                    <mxGeometry relative="1" as="geometry"/>
                </mxCell>
                <mxCell id="553" value="&lt;font style=&quot;font-size: 18px;&quot;&gt;Encontrar máximo y mínimo&lt;/font&gt;" style="rounded=0;whiteSpace=wrap;html=1;fillColor=#99FFCC;" parent="1" vertex="1">
                    <mxGeometry x="3222.5" y="4970" width="165" height="60" as="geometry"/>
                </mxCell>
                <mxCell id="559" style="edgeStyle=none;html=1;entryX=0.5;entryY=0;entryDx=0;entryDy=0;" parent="1" source="556" target="558" edge="1">
                    <mxGeometry relative="1" as="geometry"/>
                </mxCell>
                <mxCell id="556" value="&lt;br&gt;&lt;font style=&quot;font-size: 18px;&quot;&gt;Ordenar lista&lt;br&gt;&lt;/font&gt;" style="rounded=0;whiteSpace=wrap;html=1;fillColor=#99FFCC;" parent="1" vertex="1">
                    <mxGeometry x="3221.25" y="5130" width="165" height="60" as="geometry"/>
                </mxCell>
                <mxCell id="562" style="edgeStyle=none;html=1;entryX=1;entryY=0.5;entryDx=0;entryDy=0;" parent="1" source="558" target="560" edge="1">
                    <mxGeometry relative="1" as="geometry"/>
                </mxCell>
                <mxCell id="564" value="&lt;font style=&quot;font-size: 14px;&quot;&gt;Si&lt;/font&gt;" style="edgeLabel;html=1;align=center;verticalAlign=middle;resizable=0;points=[];" parent="562" vertex="1" connectable="0">
                    <mxGeometry x="-0.1115" y="-1" relative="1" as="geometry">
                        <mxPoint as="offset"/>
                    </mxGeometry>
                </mxCell>
                <mxCell id="563" style="edgeStyle=none;html=1;entryX=0;entryY=0.5;entryDx=0;entryDy=0;" parent="1" source="558" target="561" edge="1">
                    <mxGeometry relative="1" as="geometry"/>
                </mxCell>
                <mxCell id="565" value="&lt;span style=&quot;color: rgb(63, 63, 63); font-size: 14px;&quot;&gt;No&lt;/span&gt;" style="edgeLabel;html=1;align=center;verticalAlign=middle;resizable=0;points=[];" parent="563" vertex="1" connectable="0">
                    <mxGeometry x="-0.1227" y="-1" relative="1" as="geometry">
                        <mxPoint as="offset"/>
                    </mxGeometry>
                </mxCell>
                <mxCell id="558" value="&lt;span style=&quot;font-size: 18px;&quot;&gt;¿N es par?&lt;/span&gt;" style="rhombus;whiteSpace=wrap;html=1;fillColor=#FFFF66;" parent="1" vertex="1">
                    <mxGeometry x="3222.5" y="5270" width="165" height="140" as="geometry"/>
                </mxCell>
                <mxCell id="568" style="edgeStyle=none;html=1;entryX=0;entryY=0.5;entryDx=0;entryDy=0;" parent="1" source="560" target="566" edge="1">
                    <mxGeometry relative="1" as="geometry">
                        <Array as="points">
                            <mxPoint x="3000" y="5550"/>
                        </Array>
                    </mxGeometry>
                </mxCell>
                <mxCell id="560" value="&lt;br&gt;&lt;font style=&quot;font-size: 18px;&quot;&gt;Mediana = (lista[n/2-1] + lista[n/2])/2&lt;/font&gt;" style="rounded=0;whiteSpace=wrap;html=1;fillColor=#99FFCC;" parent="1" vertex="1">
                    <mxGeometry x="2920" y="5295" width="165" height="90" as="geometry"/>
                </mxCell>
                <mxCell id="569" style="edgeStyle=none;html=1;entryX=1;entryY=0.5;entryDx=0;entryDy=0;" parent="1" source="561" target="566" edge="1">
                    <mxGeometry relative="1" as="geometry">
                        <Array as="points">
                            <mxPoint x="3603" y="5550"/>
                        </Array>
                    </mxGeometry>
                </mxCell>
                <mxCell id="561" value="&lt;br&gt;&lt;font style=&quot;font-size: 18px;&quot;&gt;&quot;mediana = lista[n/2]&lt;br&gt;&lt;/font&gt;" style="rounded=0;whiteSpace=wrap;html=1;fillColor=#99FFCC;" parent="1" vertex="1">
                    <mxGeometry x="3520" y="5290" width="165" height="90" as="geometry"/>
                </mxCell>
                <mxCell id="571" style="edgeStyle=none;html=1;entryX=0.5;entryY=0;entryDx=0;entryDy=0;" parent="1" source="566" target="570" edge="1">
                    <mxGeometry relative="1" as="geometry"/>
                </mxCell>
                <mxCell id="566" value="&lt;font style=&quot;font-size: 18px;&quot;&gt;Mostrar: promedio, max, min, mediana&lt;/font&gt;" style="shape=document;whiteSpace=wrap;html=1;boundedLbl=1;fillColor=#66FF66;" parent="1" vertex="1">
                    <mxGeometry x="3235" y="5500" width="140" height="100" as="geometry"/>
                </mxCell>
                <mxCell id="570" value="&lt;font style=&quot;font-size: 18px;&quot;&gt;Fin&lt;/font&gt;" style="ellipse;whiteSpace=wrap;html=1;fillColor=#3399FF;" parent="1" vertex="1">
                    <mxGeometry x="3190" y="5710" width="230" height="40" as="geometry"/>
                </mxCell>
                <mxCell id="572" value="&lt;font style=&quot;font-size: 24px;&quot;&gt;&lt;b&gt;Tema 9&lt;/b&gt;&lt;/font&gt;" style="text;html=1;align=center;verticalAlign=middle;resizable=0;points=[];autosize=1;strokeColor=none;fillColor=none;" parent="1" vertex="1">
                    <mxGeometry x="3740" y="20" width="100" height="40" as="geometry"/>
                </mxCell>
                <mxCell id="573" value="&lt;font style=&quot;font-size: 24px;&quot;&gt;&lt;b&gt;Verificacion de año bisiestos con contexto historico&lt;/b&gt;&lt;/font&gt;" style="text;html=1;align=center;verticalAlign=middle;resizable=0;points=[];autosize=1;strokeColor=none;fillColor=none;" parent="1" vertex="1">
                    <mxGeometry x="3720" y="60" width="620" height="40" as="geometry"/>
                </mxCell>
                <mxCell id="577" style="edgeStyle=none;html=1;entryX=0.5;entryY=0;entryDx=0;entryDy=0;" parent="1" source="574" target="575" edge="1">
                    <mxGeometry relative="1" as="geometry"/>
                </mxCell>
                <mxCell id="574" value="INICIO" style="ellipse;whiteSpace=wrap;html=1;fillColor=#66B2FF;" parent="1" vertex="1">
                    <mxGeometry x="3930" y="200" width="230" height="40" as="geometry"/>
                </mxCell>
                <mxCell id="578" style="edgeStyle=none;html=1;" parent="1" source="575" target="576" edge="1">
                    <mxGeometry relative="1" as="geometry"/>
                </mxCell>
                <mxCell id="575" value="&lt;span style=&quot;font-size: 18px;&quot;&gt;Ingresa un numero&lt;/span&gt;" style="shape=parallelogram;perimeter=parallelogramPerimeter;whiteSpace=wrap;html=1;fixedSize=1;fillColor=#FFCC99;" parent="1" vertex="1">
                    <mxGeometry x="3950" y="310" width="190" height="90" as="geometry"/>
                </mxCell>
                <mxCell id="580" style="edgeStyle=none;html=1;entryX=0.5;entryY=0;entryDx=0;entryDy=0;" parent="1" source="576" target="579" edge="1">
                    <mxGeometry relative="1" as="geometry"/>
                </mxCell>
                <mxCell id="576" value="&lt;font style=&quot;font-size: 18px;&quot;&gt;Validar&lt;/font&gt;&lt;div&gt;&lt;span style=&quot;font-size: 18px;&quot;&gt;numero&lt;br&gt;&lt;/span&gt;&lt;div&gt;&lt;br&gt;&lt;/div&gt;&lt;/div&gt;" style="rounded=0;whiteSpace=wrap;html=1;fillColor=#99FFCC;" parent="1" vertex="1">
                    <mxGeometry x="3965" y="490" width="160" height="60" as="geometry"/>
                </mxCell>
                <mxCell id="586" style="edgeStyle=none;html=1;entryX=0.5;entryY=0;entryDx=0;entryDy=0;" parent="1" source="579" target="585" edge="1">
                    <mxGeometry relative="1" as="geometry"/>
                </mxCell>
                <mxCell id="587" value="&lt;font style=&quot;font-size: 14px;&quot;&gt;Si&lt;/font&gt;" style="edgeLabel;html=1;align=center;verticalAlign=middle;resizable=0;points=[];" parent="586" vertex="1" connectable="0">
                    <mxGeometry x="0.0571" relative="1" as="geometry">
                        <mxPoint as="offset"/>
                    </mxGeometry>
                </mxCell>
                <mxCell id="579" value="&lt;font style=&quot;font-size: 18px;&quot;&gt;¿Es un&amp;nbsp;&lt;/font&gt;&lt;span style=&quot;color: rgb(63, 63, 63); font-size: 18px; background-color: transparent;&quot;&gt;numero&amp;nbsp;&lt;/span&gt;&lt;div&gt;&lt;font style=&quot;font-size: 18px;&quot;&gt;entero positivo?&lt;/font&gt;&lt;/div&gt;" style="rhombus;whiteSpace=wrap;html=1;fillColor=#FFFF66;" parent="1" vertex="1">
                    <mxGeometry x="3960" y="630" width="170" height="155" as="geometry"/>
                </mxCell>
                <mxCell id="583" style="edgeStyle=none;html=1;entryX=0;entryY=0.5;entryDx=0;entryDy=0;" parent="1" source="581" target="575" edge="1">
                    <mxGeometry relative="1" as="geometry">
                        <Array as="points">
                            <mxPoint x="3760" y="360"/>
                        </Array>
                    </mxGeometry>
                </mxCell>
                <mxCell id="581" value="&lt;span style=&quot;font-size: 18px;&quot;&gt;El numero&amp;nbsp;&lt;/span&gt;&lt;div&gt;&lt;span style=&quot;font-size: 18px;&quot;&gt;debe ser entero&lt;/span&gt;&lt;/div&gt;" style="shape=document;whiteSpace=wrap;html=1;boundedLbl=1;fillColor=#FF6666;" parent="1" vertex="1">
                    <mxGeometry x="3700" y="677.5" width="120" height="85" as="geometry"/>
                </mxCell>
                <mxCell id="582" style="edgeStyle=none;html=1;entryX=1.032;entryY=0.352;entryDx=0;entryDy=0;entryPerimeter=0;" parent="1" source="579" target="581" edge="1">
                    <mxGeometry relative="1" as="geometry"/>
                </mxCell>
                <mxCell id="584" value="&lt;font style=&quot;font-size: 14px;&quot;&gt;No&lt;/font&gt;" style="edgeLabel;html=1;align=center;verticalAlign=middle;resizable=0;points=[];" parent="582" vertex="1" connectable="0">
                    <mxGeometry x="-0.0815" relative="1" as="geometry">
                        <mxPoint as="offset"/>
                    </mxGeometry>
                </mxCell>
                <mxCell id="589" style="edgeStyle=none;html=1;entryX=0;entryY=0.5;entryDx=0;entryDy=0;" parent="1" source="585" target="588" edge="1">
                    <mxGeometry relative="1" as="geometry"/>
                </mxCell>
                <mxCell id="592" value="&lt;font style=&quot;font-size: 14px;&quot;&gt;No&lt;/font&gt;" style="edgeLabel;html=1;align=center;verticalAlign=middle;resizable=0;points=[];" parent="589" vertex="1" connectable="0">
                    <mxGeometry x="-0.16" relative="1" as="geometry">
                        <mxPoint y="1" as="offset"/>
                    </mxGeometry>
                </mxCell>
                <mxCell id="595" style="edgeStyle=none;html=1;" parent="1" source="585" target="590" edge="1">
                    <mxGeometry relative="1" as="geometry"/>
                </mxCell>
                <mxCell id="597" value="&lt;font style=&quot;font-size: 14px;&quot;&gt;Si&lt;/font&gt;" style="edgeLabel;html=1;align=center;verticalAlign=middle;resizable=0;points=[];" parent="595" vertex="1" connectable="0">
                    <mxGeometry x="-0.0118" relative="1" as="geometry">
                        <mxPoint as="offset"/>
                    </mxGeometry>
                </mxCell>
                <mxCell id="585" value="&lt;span style=&quot;font-size: 18px;&quot;&gt;¿Esta entre 1-3000?&lt;/span&gt;" style="rhombus;whiteSpace=wrap;html=1;fillColor=#FFFF66;" parent="1" vertex="1">
                    <mxGeometry x="3960" y="855" width="170" height="155" as="geometry"/>
                </mxCell>
                <mxCell id="593" style="edgeStyle=none;html=1;entryX=1;entryY=0.5;entryDx=0;entryDy=0;" parent="1" source="588" target="575" edge="1">
                    <mxGeometry relative="1" as="geometry">
                        <Array as="points">
                            <mxPoint x="4380" y="355"/>
                        </Array>
                    </mxGeometry>
                </mxCell>
                <mxCell id="588" value="&lt;font style=&quot;font-size: 18px;&quot;&gt;El numero&amp;nbsp;&lt;/font&gt;&lt;div&gt;&lt;font style=&quot;font-size: 18px;&quot;&gt;debe estar&lt;/font&gt;&lt;/div&gt;&lt;div&gt;&lt;font style=&quot;font-size: 18px;&quot;&gt;1-3000&lt;/font&gt;&lt;/div&gt;" style="shape=document;whiteSpace=wrap;html=1;boundedLbl=1;fillColor=#FF6666;" parent="1" vertex="1">
                    <mxGeometry x="4330" y="890" width="120" height="85" as="geometry"/>
                </mxCell>
                <mxCell id="598" style="edgeStyle=none;html=1;entryX=0.5;entryY=0;entryDx=0;entryDy=0;" parent="1" source="590" target="591" edge="1">
                    <mxGeometry relative="1" as="geometry"/>
                </mxCell>
                <mxCell id="600" value="&lt;font style=&quot;font-size: 14px;&quot;&gt;No&lt;/font&gt;" style="edgeLabel;html=1;align=center;verticalAlign=middle;resizable=0;points=[];" parent="598" vertex="1" connectable="0">
                    <mxGeometry x="0.0316" y="1" relative="1" as="geometry">
                        <mxPoint as="offset"/>
                    </mxGeometry>
                </mxCell>
                <mxCell id="607" style="edgeStyle=none;html=1;" parent="1" source="590" target="606" edge="1">
                    <mxGeometry relative="1" as="geometry">
                        <mxPoint x="3740" y="1172.5" as="targetPoint"/>
                    </mxGeometry>
                </mxCell>
                <mxCell id="608" value="&lt;font style=&quot;font-size: 14px;&quot;&gt;Si&lt;/font&gt;" style="edgeLabel;html=1;align=center;verticalAlign=middle;resizable=0;points=[];" parent="607" vertex="1" connectable="0">
                    <mxGeometry x="-0.0061" relative="1" as="geometry">
                        <mxPoint as="offset"/>
                    </mxGeometry>
                </mxCell>
                <mxCell id="590" value="&lt;font style=&quot;font-size: 18px;&quot;&gt;¿Es divisible por 400?&lt;/font&gt;" style="rhombus;whiteSpace=wrap;html=1;fillColor=#FFFF66;" parent="1" vertex="1">
                    <mxGeometry x="3960" y="1095" width="170" height="155" as="geometry"/>
                </mxCell>
                <mxCell id="599" style="edgeStyle=none;html=1;entryX=0.5;entryY=0;entryDx=0;entryDy=0;" parent="1" source="591" target="594" edge="1">
                    <mxGeometry relative="1" as="geometry"/>
                </mxCell>
                <mxCell id="601" value="&lt;font style=&quot;font-size: 14px;&quot;&gt;No&lt;/font&gt;" style="edgeLabel;html=1;align=center;verticalAlign=middle;resizable=0;points=[];" parent="599" vertex="1" connectable="0">
                    <mxGeometry x="0.0526" relative="1" as="geometry">
                        <mxPoint as="offset"/>
                    </mxGeometry>
                </mxCell>
                <mxCell id="610" style="edgeStyle=none;html=1;entryX=0;entryY=0.5;entryDx=0;entryDy=0;" parent="1" source="591" target="609" edge="1">
                    <mxGeometry relative="1" as="geometry"/>
                </mxCell>
                <mxCell id="611" value="&lt;font style=&quot;font-size: 14px;&quot;&gt;Si&lt;/font&gt;" style="edgeLabel;html=1;align=center;verticalAlign=middle;resizable=0;points=[];" parent="610" vertex="1" connectable="0">
                    <mxGeometry x="-0.075" y="1" relative="1" as="geometry">
                        <mxPoint y="1" as="offset"/>
                    </mxGeometry>
                </mxCell>
                <mxCell id="591" value="&lt;span style=&quot;font-size: 18px;&quot;&gt;¿Es divisible por 100?&lt;/span&gt;" style="rhombus;whiteSpace=wrap;html=1;fillColor=#FFFF66;" parent="1" vertex="1">
                    <mxGeometry x="3960" y="1345" width="170" height="155" as="geometry"/>
                </mxCell>
                <mxCell id="612" style="edgeStyle=none;html=1;entryX=0.5;entryY=0;entryDx=0;entryDy=0;" parent="1" source="594" edge="1" target="616">
                    <mxGeometry relative="1" as="geometry">
                        <mxPoint x="4045" y="1830" as="targetPoint"/>
                    </mxGeometry>
                </mxCell>
                <mxCell id="617" value="&lt;font style=&quot;font-size: 14px;&quot;&gt;Si&lt;/font&gt;" style="edgeLabel;html=1;align=center;verticalAlign=middle;resizable=0;points=[];" vertex="1" connectable="0" parent="612">
                    <mxGeometry x="0.0545" relative="1" as="geometry">
                        <mxPoint as="offset"/>
                    </mxGeometry>
                </mxCell>
                <mxCell id="614" style="edgeStyle=none;html=1;entryX=-0.021;entryY=0.564;entryDx=0;entryDy=0;entryPerimeter=0;" parent="1" source="594" target="613" edge="1">
                    <mxGeometry relative="1" as="geometry">
                        <mxPoint x="4280" y="1672.5" as="targetPoint"/>
                    </mxGeometry>
                </mxCell>
                <mxCell id="615" value="&lt;font style=&quot;font-size: 14px;&quot;&gt;No&lt;/font&gt;" style="edgeLabel;html=1;align=center;verticalAlign=middle;resizable=0;points=[];" parent="614" vertex="1" connectable="0">
                    <mxGeometry x="-0.1145" relative="1" as="geometry">
                        <mxPoint as="offset"/>
                    </mxGeometry>
                </mxCell>
                <mxCell id="594" value="&lt;span style=&quot;font-size: 18px;&quot;&gt;¿Es divisible por 4?&lt;/span&gt;" style="rhombus;whiteSpace=wrap;html=1;fillColor=#FFFF66;" parent="1" vertex="1">
                    <mxGeometry x="3960" y="1595" width="170" height="155" as="geometry"/>
                </mxCell>
                <mxCell id="603" style="edgeStyle=none;html=1;" parent="1" edge="1">
                    <mxGeometry relative="1" as="geometry">
                        <mxPoint x="3680" y="3023" as="targetPoint"/>
                        <mxPoint x="3665" y="3023" as="sourcePoint"/>
                    </mxGeometry>
                </mxCell>
                <mxCell id="605" value="&lt;font style=&quot;font-size: 24px;&quot;&gt;&lt;b&gt;Calculadora&amp;nbsp; de promedio aritmetico con analisis estadistico&amp;nbsp;&lt;/b&gt;&lt;/font&gt;" style="text;html=1;align=center;verticalAlign=middle;resizable=0;points=[];autosize=1;strokeColor=none;fillColor=none;" parent="1" vertex="1">
                    <mxGeometry x="2930" y="3003" width="720" height="40" as="geometry"/>
                </mxCell>
                <mxCell id="621" style="edgeStyle=none;html=1;entryX=0;entryY=0.5;entryDx=0;entryDy=0;" edge="1" parent="1" source="606" target="618">
                    <mxGeometry relative="1" as="geometry">
                        <Array as="points">
                            <mxPoint x="3660" y="2090"/>
                        </Array>
                    </mxGeometry>
                </mxCell>
                <mxCell id="606" value="&lt;span style=&quot;font-size: 18px;&quot;&gt;Es un año bisiesto (divisible por&amp;nbsp;&lt;/span&gt;&lt;span style=&quot;color: rgb(63, 63, 63); font-size: 18px; background-color: transparent;&quot;&gt;400)&lt;/span&gt;" style="shape=document;whiteSpace=wrap;html=1;boundedLbl=1;fillColor=#66FF66;" parent="1" vertex="1">
                    <mxGeometry x="3580" y="1115" width="150" height="110" as="geometry"/>
                </mxCell>
                <mxCell id="609" value="&lt;span style=&quot;font-size: 18px;&quot;&gt;No es un año bisiesto&lt;/span&gt;" style="shape=document;whiteSpace=wrap;html=1;boundedLbl=1;fillColor=#FF6666;" parent="1" vertex="1">
                    <mxGeometry x="4290" y="1367.5" width="140" height="110" as="geometry"/>
                </mxCell>
                <mxCell id="620" style="edgeStyle=none;html=1;entryX=1;entryY=0.5;entryDx=0;entryDy=0;" edge="1" parent="1" source="613" target="618">
                    <mxGeometry relative="1" as="geometry">
                        <Array as="points">
                            <mxPoint x="4370" y="2090"/>
                        </Array>
                    </mxGeometry>
                </mxCell>
                <mxCell id="613" value="&lt;span style=&quot;font-size: 18px;&quot;&gt;No es un año bisiesto&lt;/span&gt;" style="shape=document;whiteSpace=wrap;html=1;boundedLbl=1;fillColor=#FF6666;" parent="1" vertex="1">
                    <mxGeometry x="4290" y="1613" width="140" height="110" as="geometry"/>
                </mxCell>
                <mxCell id="619" style="edgeStyle=none;html=1;" edge="1" parent="1" source="616" target="618">
                    <mxGeometry relative="1" as="geometry"/>
                </mxCell>
                <mxCell id="616" value="&lt;span style=&quot;font-size: 18px;&quot;&gt;Es un año bisiesto (divisible por&amp;nbsp;&lt;/span&gt;&lt;span style=&quot;color: rgb(63, 63, 63); font-size: 18px; background-color: transparent;&quot;&gt;400)&lt;/span&gt;" style="shape=document;whiteSpace=wrap;html=1;boundedLbl=1;fillColor=#66FF66;" vertex="1" parent="1">
                    <mxGeometry x="3970" y="1860" width="150" height="110" as="geometry"/>
                </mxCell>
                <mxCell id="618" value="&lt;font style=&quot;font-size: 18px;&quot;&gt;Fin&lt;/font&gt;" style="ellipse;whiteSpace=wrap;html=1;fillColor=#3399FF;" vertex="1" parent="1">
                    <mxGeometry x="3930" y="2070" width="230" height="40" as="geometry"/>
                </mxCell>
                <mxCell id="623" style="edgeStyle=none;html=1;entryX=0.517;entryY=1.2;entryDx=0;entryDy=0;entryPerimeter=0;" edge="1" parent="1" source="609" target="618">
                    <mxGeometry relative="1" as="geometry">
                        <Array as="points">
                            <mxPoint x="4600" y="1420"/>
                            <mxPoint x="4600" y="2200"/>
                            <mxPoint x="4049" y="2200"/>
                        </Array>
                    </mxGeometry>
                </mxCell>
                <mxCell id="629" value="" style="edgeStyle=none;html=1;" edge="1" parent="1" source="626" target="627">
                    <mxGeometry relative="1" as="geometry"/>
                </mxCell>
                <mxCell id="626" value="INICIO" style="ellipse;whiteSpace=wrap;html=1;fillColor=#66B2FF;" vertex="1" parent="1">
                    <mxGeometry x="4100" y="2350" width="230" height="40" as="geometry"/>
                </mxCell>
                <mxCell id="630" value="" style="edgeStyle=none;html=1;" edge="1" parent="1" source="627" target="628">
                    <mxGeometry relative="1" as="geometry"/>
                </mxCell>
                <mxCell id="627" value="&lt;span style=&quot;font-size: 18px;&quot;&gt;Ingresa temperatura&lt;/span&gt;" style="shape=parallelogram;perimeter=parallelogramPerimeter;whiteSpace=wrap;html=1;fixedSize=1;fillColor=#FFCC99;" vertex="1" parent="1">
                    <mxGeometry x="4120" y="2460" width="190" height="90" as="geometry"/>
                </mxCell>
                <mxCell id="632" value="" style="edgeStyle=none;html=1;" edge="1" parent="1" source="628" target="631">
                    <mxGeometry relative="1" as="geometry"/>
                </mxCell>
                <mxCell id="628" value="&lt;span style=&quot;font-size: 18px;&quot;&gt;Validar&lt;/span&gt;" style="rounded=0;whiteSpace=wrap;html=1;fillColor=#99FFCC;" vertex="1" parent="1">
                    <mxGeometry x="4132.5" y="2600" width="165" height="60" as="geometry"/>
                </mxCell>
                <mxCell id="634" value="" style="edgeStyle=none;html=1;" edge="1" parent="1" source="631" target="633">
                    <mxGeometry relative="1" as="geometry"/>
                </mxCell>
                <mxCell id="638" value="&lt;font style=&quot;font-size: 14px;&quot;&gt;No&lt;/font&gt;" style="edgeLabel;html=1;align=center;verticalAlign=middle;resizable=0;points=[];" vertex="1" connectable="0" parent="634">
                    <mxGeometry x="-0.1057" y="-1" relative="1" as="geometry">
                        <mxPoint x="1" as="offset"/>
                    </mxGeometry>
                </mxCell>
                <mxCell id="639" value="" style="edgeStyle=none;html=1;" edge="1" parent="1" source="631" target="636">
                    <mxGeometry relative="1" as="geometry"/>
                </mxCell>
                <mxCell id="645" value="&lt;font style=&quot;font-size: 14px;&quot;&gt;Si&lt;/font&gt;" style="edgeLabel;html=1;align=center;verticalAlign=middle;resizable=0;points=[];" vertex="1" connectable="0" parent="639">
                    <mxGeometry x="-0.092" relative="1" as="geometry">
                        <mxPoint as="offset"/>
                    </mxGeometry>
                </mxCell>
                <mxCell id="631" value="&lt;span style=&quot;font-size: 18px;&quot;&gt;¿Es un numero?&lt;/span&gt;" style="rhombus;whiteSpace=wrap;html=1;fillColor=#FFFF66;" vertex="1" parent="1">
                    <mxGeometry x="4142.5" y="2725" width="145" height="130" as="geometry"/>
                </mxCell>
                <mxCell id="635" style="edgeStyle=none;html=1;entryX=1;entryY=1;entryDx=0;entryDy=0;" edge="1" parent="1" source="633" target="627">
                    <mxGeometry relative="1" as="geometry">
                        <Array as="points">
                            <mxPoint x="4440" y="2541"/>
                        </Array>
                    </mxGeometry>
                </mxCell>
                <mxCell id="633" value="&lt;span style=&quot;font-size: 18px;&quot;&gt;Error:&amp;nbsp;&lt;/span&gt;&lt;div&gt;&lt;span style=&quot;font-size: 18px;&quot;&gt;debe ser un numero&lt;/span&gt;&lt;/div&gt;" style="shape=document;whiteSpace=wrap;html=1;boundedLbl=1;fillColor=#FF6666;" vertex="1" parent="1">
                    <mxGeometry x="4390" y="2740" width="120" height="100" as="geometry"/>
                </mxCell>
                <mxCell id="643" value="" style="edgeStyle=none;html=1;" edge="1" parent="1" source="636" target="642">
                    <mxGeometry relative="1" as="geometry"/>
                </mxCell>
                <mxCell id="636" value="&lt;span style=&quot;font-size: 18px;&quot;&gt;Selecciona escala&lt;/span&gt;&lt;div&gt;&lt;span style=&quot;font-size: 18px;&quot;&gt;origen:&lt;/span&gt;&lt;/div&gt;&lt;div&gt;&lt;span style=&quot;color: rgb(63, 63, 63); font-size: 18px; background-color: transparent;&quot;&gt;1: Celsius&lt;/span&gt;&lt;/div&gt;&lt;div&gt;&lt;span style=&quot;font-size: 18px;&quot;&gt;2: fahrenheit&lt;/span&gt;&lt;/div&gt;&lt;div&gt;&lt;span style=&quot;font-size: 18px;&quot;&gt;3: kelvin&lt;/span&gt;&lt;/div&gt;&lt;div&gt;&lt;span style=&quot;font-size: 18px;&quot;&gt;&lt;br&gt;&lt;/span&gt;&lt;/div&gt;" style="shape=parallelogram;perimeter=parallelogramPerimeter;whiteSpace=wrap;html=1;fixedSize=1;fillColor=#FFCC99;" vertex="1" parent="1">
                    <mxGeometry x="4108.75" y="2913" width="212.5" height="130" as="geometry"/>
                </mxCell>
                <mxCell id="648" value="" style="edgeStyle=none;html=1;" edge="1" parent="1" source="640" target="647">
                    <mxGeometry relative="1" as="geometry"/>
                </mxCell>
                <mxCell id="651" value="&lt;font style=&quot;font-size: 14px;&quot;&gt;No&lt;/font&gt;" style="edgeLabel;html=1;align=center;verticalAlign=middle;resizable=0;points=[];" vertex="1" connectable="0" parent="648">
                    <mxGeometry x="0.0189" y="-2" relative="1" as="geometry">
                        <mxPoint x="1" as="offset"/>
                    </mxGeometry>
                </mxCell>
                <mxCell id="654" value="" style="edgeStyle=none;html=1;" edge="1" parent="1" source="640" target="652">
                    <mxGeometry relative="1" as="geometry"/>
                </mxCell>
                <mxCell id="656" value="&lt;font style=&quot;font-size: 14px;&quot;&gt;Si&lt;/font&gt;" style="edgeLabel;html=1;align=center;verticalAlign=middle;resizable=0;points=[];" vertex="1" connectable="0" parent="654">
                    <mxGeometry x="-0.1067" relative="1" as="geometry">
                        <mxPoint as="offset"/>
                    </mxGeometry>
                </mxCell>
                <mxCell id="640" value="&lt;font style=&quot;font-size: 18px;&quot;&gt;¿Es valida?&lt;/font&gt;" style="rhombus;whiteSpace=wrap;html=1;fillColor=#FFFF66;" vertex="1" parent="1">
                    <mxGeometry x="4142.5" y="3250" width="145" height="130" as="geometry"/>
                </mxCell>
                <mxCell id="646" value="" style="edgeStyle=none;html=1;" edge="1" parent="1" source="642" target="640">
                    <mxGeometry relative="1" as="geometry"/>
                </mxCell>
                <mxCell id="642" value="&lt;span style=&quot;font-size: 18px;&quot;&gt;Validar opcion 1-3&lt;/span&gt;" style="rounded=0;whiteSpace=wrap;html=1;fillColor=#99FFCC;" vertex="1" parent="1">
                    <mxGeometry x="4132.5" y="3120" width="165" height="60" as="geometry"/>
                </mxCell>
                <mxCell id="649" style="edgeStyle=none;html=1;entryX=0;entryY=0.5;entryDx=0;entryDy=0;" edge="1" parent="1" source="647" target="636">
                    <mxGeometry relative="1" as="geometry">
                        <Array as="points">
                            <mxPoint x="3940" y="2980"/>
                        </Array>
                    </mxGeometry>
                </mxCell>
                <mxCell id="647" value="&lt;font style=&quot;font-size: 18px;&quot;&gt;Error&lt;/font&gt;:&lt;div&gt;&lt;font style=&quot;font-size: 18px;&quot;&gt;ingresa una opcion valida&lt;/font&gt;&lt;/div&gt;" style="shape=document;whiteSpace=wrap;html=1;boundedLbl=1;fillColor=#FF6666;" vertex="1" parent="1">
                    <mxGeometry x="3870" y="3265" width="140" height="100" as="geometry"/>
                </mxCell>
                <mxCell id="658" value="" style="edgeStyle=none;html=1;" edge="1" parent="1" source="652" target="657">
                    <mxGeometry relative="1" as="geometry"/>
                </mxCell>
                <mxCell id="652" value="&lt;span style=&quot;font-size: 18px;&quot;&gt;Validar 0 absoluto&lt;/span&gt;" style="rounded=0;whiteSpace=wrap;html=1;fillColor=#99FFCC;" vertex="1" parent="1">
                    <mxGeometry x="4132.5" y="3480" width="165" height="60" as="geometry"/>
                </mxCell>
                <mxCell id="664" value="" style="edgeStyle=none;html=1;" edge="1" parent="1" source="657" target="663">
                    <mxGeometry relative="1" as="geometry"/>
                </mxCell>
                <mxCell id="665" value="&lt;font style=&quot;font-size: 14px;&quot;&gt;Si&lt;/font&gt;" style="edgeLabel;html=1;align=center;verticalAlign=middle;resizable=0;points=[];" vertex="1" connectable="0" parent="664">
                    <mxGeometry x="-0.1556" relative="1" as="geometry">
                        <mxPoint as="offset"/>
                    </mxGeometry>
                </mxCell>
                <mxCell id="657" value="&lt;font style=&quot;font-size: 18px;&quot;&gt;¿La temperatura&lt;/font&gt;&lt;div&gt;&lt;font style=&quot;font-size: 18px;&quot;&gt;es valida?&lt;/font&gt;&lt;/div&gt;" style="rhombus;whiteSpace=wrap;html=1;fillColor=#FFFF66;" vertex="1" parent="1">
                    <mxGeometry x="4136.25" y="3620" width="157.5" height="160" as="geometry"/>
                </mxCell>
                <mxCell id="660" style="edgeStyle=none;html=1;entryX=1;entryY=0.5;entryDx=0;entryDy=0;" edge="1" parent="1" source="659" target="627">
                    <mxGeometry relative="1" as="geometry">
                        <mxPoint x="4650" y="2603.3333333333335" as="targetPoint"/>
                        <Array as="points">
                            <mxPoint x="4530" y="2505"/>
                        </Array>
                    </mxGeometry>
                </mxCell>
                <mxCell id="659" value="&lt;font style=&quot;font-size: 18px;&quot;&gt;Error&lt;/font&gt;:&lt;div&gt;&lt;span style=&quot;font-size: 18px;&quot;&gt;por debajo del 0 absoluto&lt;/span&gt;&lt;/div&gt;" style="shape=document;whiteSpace=wrap;html=1;boundedLbl=1;fillColor=#FF6666;" vertex="1" parent="1">
                    <mxGeometry x="4460" y="3660" width="140" height="100" as="geometry"/>
                </mxCell>
                <mxCell id="661" style="edgeStyle=none;html=1;entryX=-0.024;entryY=0.38;entryDx=0;entryDy=0;entryPerimeter=0;" edge="1" parent="1" source="657" target="659">
                    <mxGeometry relative="1" as="geometry"/>
                </mxCell>
                <mxCell id="662" value="&lt;font style=&quot;font-size: 14px;&quot;&gt;No&lt;/font&gt;" style="edgeLabel;html=1;align=center;verticalAlign=middle;resizable=0;points=[];" vertex="1" connectable="0" parent="661">
                    <mxGeometry x="-0.0394" y="-1" relative="1" as="geometry">
                        <mxPoint as="offset"/>
                    </mxGeometry>
                </mxCell>
                <mxCell id="667" value="" style="edgeStyle=none;html=1;" edge="1" parent="1" source="663" target="666">
                    <mxGeometry relative="1" as="geometry"/>
                </mxCell>
                <mxCell id="663" value="&lt;span style=&quot;font-size: 18px;&quot;&gt;Selecciona escala&lt;/span&gt;&lt;div&gt;&lt;span style=&quot;font-size: 18px;&quot;&gt;destino:&lt;/span&gt;&lt;/div&gt;&lt;div&gt;&lt;span style=&quot;color: rgb(63, 63, 63); font-size: 18px; background-color: transparent;&quot;&gt;1: Celsius&lt;/span&gt;&lt;/div&gt;&lt;div&gt;&lt;span style=&quot;font-size: 18px;&quot;&gt;2: fahrenheit&lt;/span&gt;&lt;/div&gt;&lt;div&gt;&lt;span style=&quot;font-size: 18px;&quot;&gt;3: kelvin&lt;/span&gt;&lt;/div&gt;&lt;div&gt;&lt;span style=&quot;font-size: 18px;&quot;&gt;&lt;br&gt;&lt;/span&gt;&lt;/div&gt;" style="shape=parallelogram;perimeter=parallelogramPerimeter;whiteSpace=wrap;html=1;fixedSize=1;fillColor=#FFCC99;" vertex="1" parent="1">
                    <mxGeometry x="4108.75" y="3870" width="212.5" height="130" as="geometry"/>
                </mxCell>
                <mxCell id="669" value="" style="edgeStyle=none;html=1;" edge="1" parent="1" source="666" target="668">
                    <mxGeometry relative="1" as="geometry"/>
                </mxCell>
                <mxCell id="666" value="&lt;span style=&quot;font-size: 18px;&quot;&gt;Validar opcion 1-3&lt;/span&gt;" style="rounded=0;whiteSpace=wrap;html=1;fillColor=#99FFCC;" vertex="1" parent="1">
                    <mxGeometry x="4132.5" y="4080" width="165" height="60" as="geometry"/>
                </mxCell>
                <mxCell id="671" style="edgeStyle=none;html=1;entryX=1;entryY=0.5;entryDx=0;entryDy=0;" edge="1" parent="1" source="668" target="670">
                    <mxGeometry relative="1" as="geometry"/>
                </mxCell>
                <mxCell id="673" value="&lt;font style=&quot;font-size: 14px;&quot;&gt;No&lt;/font&gt;" style="edgeLabel;html=1;align=center;verticalAlign=middle;resizable=0;points=[];" vertex="1" connectable="0" parent="671">
                    <mxGeometry x="-0.1321" relative="1" as="geometry">
                        <mxPoint x="-1" as="offset"/>
                    </mxGeometry>
                </mxCell>
                <mxCell id="675" value="" style="edgeStyle=none;html=1;" edge="1" parent="1" source="668" target="674">
                    <mxGeometry relative="1" as="geometry"/>
                </mxCell>
                <mxCell id="676" value="&lt;font style=&quot;font-size: 14px;&quot;&gt;Si&lt;/font&gt;" style="edgeLabel;html=1;align=center;verticalAlign=middle;resizable=0;points=[];" vertex="1" connectable="0" parent="675">
                    <mxGeometry x="-0.0917" y="-2" relative="1" as="geometry">
                        <mxPoint as="offset"/>
                    </mxGeometry>
                </mxCell>
                <mxCell id="668" value="&lt;font style=&quot;font-size: 18px;&quot;&gt;¿Es valida?&lt;/font&gt;" style="rhombus;whiteSpace=wrap;html=1;fillColor=#FFFF66;" vertex="1" parent="1">
                    <mxGeometry x="4142.5" y="4210" width="145" height="130" as="geometry"/>
                </mxCell>
                <mxCell id="672" style="edgeStyle=none;html=1;entryX=0;entryY=0.5;entryDx=0;entryDy=0;" edge="1" parent="1" source="670" target="663">
                    <mxGeometry relative="1" as="geometry">
                        <Array as="points">
                            <mxPoint x="3940" y="3935"/>
                        </Array>
                    </mxGeometry>
                </mxCell>
                <mxCell id="670" value="&lt;font style=&quot;font-size: 18px;&quot;&gt;Error&lt;/font&gt;:&lt;div&gt;&lt;font style=&quot;font-size: 18px;&quot;&gt;ingresa una opcion valida&lt;/font&gt;&lt;/div&gt;" style="shape=document;whiteSpace=wrap;html=1;boundedLbl=1;fillColor=#FF6666;" vertex="1" parent="1">
                    <mxGeometry x="3870" y="4225" width="140" height="100" as="geometry"/>
                </mxCell>
                <mxCell id="677" style="edgeStyle=none;html=1;" edge="1" parent="1" source="674">
                    <mxGeometry relative="1" as="geometry">
                        <mxPoint x="4440" y="4485" as="targetPoint"/>
                    </mxGeometry>
                </mxCell>
                <mxCell id="685" value="&lt;font style=&quot;font-size: 14px;&quot;&gt;Si&lt;/font&gt;" style="edgeLabel;html=1;align=center;verticalAlign=middle;resizable=0;points=[];" vertex="1" connectable="0" parent="677">
                    <mxGeometry x="-0.0492" y="2" relative="1" as="geometry">
                        <mxPoint x="1" as="offset"/>
                    </mxGeometry>
                </mxCell>
                <mxCell id="678" style="edgeStyle=none;html=1;" edge="1" parent="1" source="674">
                    <mxGeometry relative="1" as="geometry">
                        <mxPoint x="3990" y="4485" as="targetPoint"/>
                    </mxGeometry>
                </mxCell>
                <mxCell id="683" value="&lt;font style=&quot;font-size: 14px;&quot;&gt;No&lt;/font&gt;" style="edgeLabel;html=1;align=center;verticalAlign=middle;resizable=0;points=[];" vertex="1" connectable="0" parent="678">
                    <mxGeometry x="0.1038" relative="1" as="geometry">
                        <mxPoint x="-1" as="offset"/>
                    </mxGeometry>
                </mxCell>
                <mxCell id="674" value="&lt;span style=&quot;font-size: 18px;&quot;&gt;¿Origen&amp;nbsp;&lt;/span&gt;&lt;div&gt;&lt;span style=&quot;font-size: 18px;&quot;&gt;==&lt;/span&gt;&lt;/div&gt;&lt;div&gt;&lt;span style=&quot;font-size: 18px;&quot;&gt;destino?&lt;/span&gt;&lt;/div&gt;" style="rhombus;whiteSpace=wrap;html=1;fillColor=#FFFF66;" vertex="1" parent="1">
                    <mxGeometry x="4142.5" y="4420" width="145" height="130" as="geometry"/>
                </mxCell>
                <mxCell id="688" style="edgeStyle=none;html=1;entryX=1;entryY=0.5;entryDx=0;entryDy=0;" edge="1" parent="1" target="686">
                    <mxGeometry relative="1" as="geometry">
                        <mxPoint x="4520" y="4485" as="sourcePoint"/>
                        <Array as="points">
                            <mxPoint x="4520" y="4670"/>
                        </Array>
                    </mxGeometry>
                </mxCell>
                <mxCell id="679" value="&lt;span style=&quot;font-size: 18px;&quot;&gt;Las temperaturas son iguales&lt;/span&gt;" style="shape=document;whiteSpace=wrap;html=1;boundedLbl=1;fillColor=#66FF66;" vertex="1" parent="1">
                    <mxGeometry x="4440" y="4435" width="140" height="100" as="geometry"/>
                </mxCell>
                <mxCell id="682" style="edgeStyle=none;html=1;" edge="1" parent="1" source="680" target="681">
                    <mxGeometry relative="1" as="geometry"/>
                </mxCell>
                <mxCell id="680" value="&lt;span style=&quot;font-size: 18px;&quot;&gt;Aplicar formula&lt;/span&gt;&lt;div&gt;&lt;span style=&quot;font-size: 18px;&quot;&gt;de conversion&lt;/span&gt;&lt;/div&gt;" style="rounded=0;whiteSpace=wrap;html=1;fillColor=#99FFCC;" vertex="1" parent="1">
                    <mxGeometry x="3825" y="4455" width="165" height="60" as="geometry"/>
                </mxCell>
                <mxCell id="687" style="edgeStyle=none;html=1;" edge="1" parent="1" source="681" target="686">
                    <mxGeometry relative="1" as="geometry"/>
                </mxCell>
                <mxCell id="681" value="&lt;span style=&quot;font-size: 18px;&quot;&gt;Mostrar resultados&lt;/span&gt;" style="shape=document;whiteSpace=wrap;html=1;boundedLbl=1;fillColor=#66FF66;" vertex="1" parent="1">
                    <mxGeometry x="3837.5" y="4620" width="140" height="100" as="geometry"/>
                </mxCell>
                <mxCell id="686" value="&lt;font style=&quot;font-size: 18px;&quot;&gt;Fin&lt;/font&gt;" style="ellipse;whiteSpace=wrap;html=1;fillColor=#3399FF;" vertex="1" parent="1">
                    <mxGeometry x="4120" y="4650" width="230" height="40" as="geometry"/>
                </mxCell>
                <mxCell id="689" value="&lt;font style=&quot;font-size: 24px;&quot;&gt;&lt;b&gt;Tema 10&lt;/b&gt;&lt;/font&gt;" style="text;html=1;align=center;verticalAlign=middle;resizable=0;points=[];autosize=1;strokeColor=none;fillColor=none;" vertex="1" parent="1">
                    <mxGeometry x="3837.5" y="2240" width="120" height="40" as="geometry"/>
                </mxCell>
                <mxCell id="691" value="&lt;font style=&quot;font-size: 24px;&quot;&gt;&lt;b&gt;conversion de temperatura universal con multiples escalas&amp;nbsp;&lt;/b&gt;&lt;/font&gt;" style="text;html=1;align=center;verticalAlign=middle;resizable=0;points=[];autosize=1;strokeColor=none;fillColor=none;" vertex="1" parent="1">
                    <mxGeometry x="3857.5" y="2290" width="710" height="40" as="geometry"/>
                </mxCell>
            </root>
        </mxGraphModel>
    </diagram>
</mxfile>